<svg width="24.000000" height="24.000000" viewBox="0 0 24 24" fill="none" xmlns="http://www.w3.org/2000/svg" xmlns:xlink="http://www.w3.org/1999/xlink">
	<desc>
			Created with Pixso.
	</desc>
	<defs>
		<clipPath id="clip1_31">
			<rect id="eva:shopping-bag-outline" width="24.000000" height="24.000000" fill="white" fill-opacity="0"/>
		</clipPath>
	</defs>
	<rect id="eva:shopping-bag-outline" width="24.000000" height="24.000000" fill="#FFFFFF" fill-opacity="0"/>
	<g clip-path="url(#clip1_31)">
		<path id="Vector" d="M20.12 6.71001L17.29 3.88C16.7279 3.31723 15.9654 3.0007 15.17 3L8.83002 3C8.03461 3.0007 7.27209 3.31723 6.71002 3.88L3.88 6.71001C3.3172 7.27206 3.00067 8.03462 3 8.83L3 18C3 18.7957 3.3161 19.5587 3.87866 20.1213C4.44128 20.6839 5.20435 21 6 21L18 21C18.7957 21 19.5587 20.6839 20.1213 20.1213C20.684 19.5587 21 18.7957 21 18L21 8.83C20.9993 8.03462 20.6828 7.27206 20.12 6.71001L20.12 6.71001M8.12 5.28999C8.31165 5.10727 8.56525 5.00368 8.83002 5L15.17 5C15.4348 5.00368 15.6884 5.10727 15.88 5.28999L17.59 7L6.40997 7L8.12 5.28999M18 19L6 19C5.7348 19 5.48041 18.8946 5.29291 18.7071C5.10535 18.5196 5 18.2652 5 18L5 9L19 9L19 18C19 18.2652 18.8947 18.5196 18.7071 18.7071C18.5196 18.8946 18.2652 19 18 19L18 19Z" fill="#232229" fill-opacity="1.000000" fill-rule="nonzero"/>
		<path id="Vector" d="M15 11C14.7348 11 14.4804 11.1054 14.2929 11.2929C14.1053 11.4804 14 11.7348 14 12C14 12.5304 13.7893 13.0391 13.4142 13.4142C13.0391 13.7893 12.5305 14 12 14C11.4695 14 10.9609 13.7893 10.5858 13.4142C10.2107 13.0391 10 12.5304 10 12C10 11.7348 9.89465 11.4804 9.70709 11.2929C9.51959 11.1054 9.2652 11 9 11C8.7348 11 8.48041 11.1054 8.29291 11.2929C8.10535 11.4804 8 11.7348 8 12C8 13.0609 8.42145 14.0783 9.17157 14.8284C9.92169 15.5786 10.9391 16 12 16C13.0609 16 14.0783 15.5786 14.8284 14.8284C15.5786 14.0783 16 13.0609 16 12C16 11.7348 15.8947 11.4804 15.7071 11.2929C15.5196 11.1054 15.2652 11 15 11L15 11Z" fill="#232229" fill-opacity="1.000000" fill-rule="nonzero"/>
	</g>
</svg>
