<svg width="19.934814" height="19.933332" viewBox="0 0 19.9348 19.9333" fill="none" xmlns="http://www.w3.org/2000/svg" xmlns:xlink="http://www.w3.org/1999/xlink">
	<desc>
			Created with Pixso.
	</desc>
	<defs/>
	<path id="Vector" d="M18.262 18.2605C18.7618 17.7591 19.1544 17.1565 19.4105 16.4956C19.6558 15.8608 19.8245 15.1371 19.8735 14.076C19.9226 13.0134 19.9348 12.673 19.9348 9.96667C19.9348 7.26033 19.9226 6.91993 19.8735 5.85733C19.8245 4.79627 19.6558 4.07253 19.4105 3.43773C19.16 2.77279 18.7676 2.17049 18.2605 1.67287C17.7628 1.16579 17.1605 0.77334 16.4956 0.522867C15.8608 0.277534 15.1371 0.108868 14.076 0.0597992C13.0134 0.0107346 12.673 0 9.96667 0C7.26038 0 6.91992 0.0107346 5.8573 0.0613327C4.79626 0.107334 4.07251 0.276001 3.43774 0.522867C2.77307 0.773911 2.17102 1.16629 1.67285 1.67287C1.16626 2.17096 0.773926 2.77313 0.522827 3.43773C0.277588 4.07253 0.108887 4.79627 0.0598145 5.85733C0.0107422 6.91993 0 7.26033 0 9.96667C0 12.673 0.0107422 13.0134 0.0612793 14.076C0.1073 15.1371 0.276001 15.8608 0.522827 16.4956C0.774292 17.1611 1.16687 17.7621 1.67285 18.2605C2.17114 18.7665 2.7738 19.159 3.43774 19.4105C4.07251 19.6558 4.79626 19.8245 5.8573 19.8735C6.91992 19.9211 7.26038 19.9333 9.96667 19.9333C12.673 19.9333 13.0134 19.9211 14.076 19.872C15.1371 19.826 15.8608 19.6573 16.4956 19.4105C17.1576 19.1543 17.7587 18.7625 18.2605 18.2605L18.262 18.2605M1.53333 8.79367L1.53333 11.1397C1.53027 12.3985 1.53027 12.7251 1.56396 13.4397C1.60388 14.3382 1.65295 14.9975 1.80322 15.4943C1.94739 15.9727 2.10828 16.4603 2.63574 17.0461C3.16321 17.6333 3.67078 17.8986 4.31787 18.0949C4.96643 18.2896 5.78064 18.331 6.48755 18.3632C7.28796 18.4 7.60681 18.4 9.28735 18.4L11.1013 18.4C12.3925 18.4015 12.7174 18.4031 13.4412 18.3693C14.3383 18.3279 14.9976 18.2789 15.4958 18.1301C15.9728 17.986 16.4603 17.8235 17.046 17.2975C17.6333 16.7701 17.8986 16.261 18.0948 15.6139C18.2896 14.9669 18.3325 14.1527 18.3647 13.4458C18.4 12.6454 18.4 12.328 18.4 10.6521L18.4 9.2874C18.4 7.60687 18.4 7.28947 18.3647 6.48753C18.3325 5.78067 18.2896 4.96647 18.0948 4.3194C17.9001 3.6708 17.6349 3.16327 17.046 2.6358C16.4587 2.10833 15.9728 1.94733 15.4958 1.8032C14.9976 1.65447 14.3383 1.60387 13.4412 1.564C12.6617 1.53197 11.8815 1.52174 11.1013 1.53333L9.28735 1.53333C7.60681 1.53333 7.28796 1.53333 6.48755 1.5686C5.78064 1.6008 4.96643 1.64373 4.31787 1.83847C3.67078 2.03473 3.16321 2.3 2.63574 2.88727C2.10828 3.47453 1.9458 3.9606 1.80322 4.439C1.65295 4.9358 1.60388 5.59513 1.56396 6.49367C1.53027 7.2082 1.53027 7.5348 1.53333 8.79367L1.53333 8.79367M9.96667 6.51667C9.05164 6.51667 8.17419 6.88015 7.5271 7.52715C6.88013 8.17415 6.51672 9.05167 6.51672 9.96667C6.51672 10.8817 6.88013 11.7592 7.5271 12.4062C8.17419 13.0532 9.05164 13.4167 9.96667 13.4167C10.8817 13.4167 11.7592 13.0532 12.4061 12.4062C13.0532 11.7592 13.4166 10.8817 13.4166 9.96667C13.4166 9.05167 13.0532 8.17415 12.4061 7.52715C11.7592 6.88015 10.8817 6.51667 9.96667 6.51667L9.96667 6.51667M4.98328 9.96667C4.98328 8.645 5.5083 7.37747 6.44287 6.44292C7.37744 5.50836 8.64502 4.98333 9.96667 4.98333C11.2883 4.98333 12.5559 5.50836 13.4904 6.44292C14.4249 7.37747 14.95 8.645 14.95 9.96667C14.95 11.2883 14.4249 12.5559 13.4904 13.4904C12.5559 14.425 11.2883 14.95 9.96667 14.95C8.64502 14.95 7.37744 14.425 6.44287 13.4904C5.5083 12.5559 4.98328 11.2883 4.98328 9.96667L4.98328 9.96667M15.2874 5.796C15.5923 5.796 15.8849 5.67484 16.1005 5.45917C16.3162 5.24351 16.4374 4.951 16.4374 4.646C16.4374 4.341 16.3162 4.04849 16.1005 3.83283C15.8849 3.61716 15.5923 3.496 15.2874 3.496C14.9823 3.496 14.6898 3.61716 14.4741 3.83283C14.2585 4.04849 14.1373 4.341 14.1373 4.646C14.1373 4.951 14.2585 5.24351 14.4741 5.45917C14.6898 5.67484 14.9823 5.796 15.2874 5.796L15.2874 5.796Z" fill="#111111" fill-opacity="1.000000" fill-rule="evenodd"/>
</svg>
