<svg width="582.782349" height="394.510681" viewBox="0 0 582.782 394.511" fill="none" xmlns="http://www.w3.org/2000/svg" xmlns:xlink="http://www.w3.org/1999/xlink">
	<desc>
			Created with Pixso.
	</desc>
	<defs/>
	<rect id="Компоненты 1" width="582.782349" height="394.510681" fill="#FFFFFF" fill-opacity="0"/>
	<path id="Vector 16" d="M23.2879 355.97L23.2879 44.5029C23.2879 43.3563 22.8935 42.2446 22.171 41.3544L6.78387 22.3974C5.1543 20.3898 5.32593 17.4705 7.1795 15.6676L19.9151 3.28053C21.8097 1.43779 24.8116 1.38944 26.7646 3.17022L41.0178 16.1669C42.7402 17.7376 45.32 17.9083 47.2344 16.5782L67.9243 2.20412C69.7927 0.906105 72.302 1.03426 74.0284 2.51587L89.8096 16.0594C91.6813 17.6657 94.4451 17.6657 96.3168 16.0594L111.308 3.19366C113.375 1.42032 116.48 1.62827 118.292 3.66124L128.465 15.0786C130.316 17.1554 133.506 17.3208 135.561 15.4466L148.448 3.69584C150.623 1.71288 154.032 2.02987 155.804 4.37979L163.754 14.9251C165.397 17.1036 168.484 17.5615 170.688 15.9536L188.897 2.67006C190.974 1.15511 193.862 1.46336 195.572 3.38259L206.093 15.1904C207.904 17.2234 211.01 17.4314 213.077 15.658L227.968 2.8784C229.883 1.23489 232.723 1.2776 234.587 2.97797L248.397 15.5701C250.399 17.3958 253.492 17.2927 255.368 15.3376L265.833 4.43198C268.027 2.14581 271.767 2.45304 273.558 5.06653L279.654 13.96C281.406 16.5156 285.037 16.877 287.258 14.7168L298.328 3.95038C300.483 1.85358 303.99 2.12273 305.8 4.52402L313.568 14.8273C315.24 17.0441 318.398 17.473 320.6 15.7821L337.47 2.82829C339.546 1.23396 342.501 1.5127 344.242 3.46717L354.221 14.6656C356.208 16.8954 359.694 16.8954 361.681 14.6656L371.019 4.18609C373.005 1.95633 376.492 1.95633 378.479 4.18608L387.952 14.8181C389.89 16.9929 393.27 17.0554 395.287 14.9536L405.896 3.89813C407.912 1.79633 411.292 1.85876 413.23 4.03358L423.262 15.292C425.037 17.2843 428.065 17.5298 430.138 15.8495L446.245 2.79449C448.211 1.20055 451.059 1.32935 452.874 3.09433L465.702 15.5712C467.596 17.4139 470.598 17.4622 472.551 15.6815L485.864 3.54243C487.976 1.61592 491.272 1.85223 493.088 4.06046L502.103 15.0209C503.847 17.141 506.975 17.457 509.108 15.7284L524.659 3.12326C526.792 1.39471 529.92 1.71068 531.664 3.83081L540.678 14.7912C542.495 16.9995 545.79 17.2358 547.903 15.3092L561.094 3.28158C563.096 1.45586 566.188 1.55902 568.064 3.51412L579.83 15.7749C581.531 17.5472 581.691 20.2928 580.207 22.2507L565.706 41.3924C565.048 42.2606 564.692 43.32 564.692 44.4092L564.692 356.072C564.692 357.421 565.238 358.713 566.205 359.653L578.961 372.061C581.031 374.073 580.969 377.415 578.827 379.35L567.826 389.285C566.017 390.919 563.292 391.009 561.38 389.497L546.672 377.874C545.069 376.608 542.857 376.445 541.085 377.463L518.737 390.307C516.861 391.385 514.504 391.134 512.899 389.683L500.194 378.209C498.588 376.759 496.232 376.507 494.356 377.585L472.108 390.371C470.287 391.418 468.005 391.214 466.399 389.86L452.635 378.257C450.901 376.796 448.399 376.685 446.543 377.989L429.16 390.2C427.509 391.36 425.323 391.413 423.618 390.335L403.921 377.882C401.968 376.647 399.424 376.913 397.768 378.523L386.617 389.369C384.961 390.979 382.417 391.245 380.464 390.01L361.28 377.882C359.328 376.647 356.783 376.913 355.127 378.523L344.045 389.302C342.358 390.943 339.754 391.184 337.794 389.88L320.258 378.21C318.167 376.818 315.369 377.195 313.721 379.09L304.942 389.181C303.441 390.906 300.959 391.392 298.918 390.36L273.145 377.324C271.302 376.392 269.074 376.69 267.542 378.075L255.129 389.285C253.32 390.919 250.596 391.009 248.683 389.497L235.061 378.732C232.968 377.078 229.945 377.36 228.194 379.372L219.99 388.803C218.342 390.697 215.543 391.074 213.453 389.683L195.917 378.012C193.957 376.708 191.353 376.949 189.665 378.59L178.727 389.229C177.006 390.903 174.337 391.116 172.372 389.736L155.549 377.918C153.741 376.648 151.313 376.716 149.579 378.086L135.266 389.397C133.299 390.952 130.483 390.808 128.685 389.059L118.08 378.744C116.322 377.034 113.583 376.853 111.615 378.317L96.9548 389.221C94.7871 390.833 91.7305 390.43 90.0546 388.311L83.2397 379.694C81.5286 377.531 78.3878 377.163 76.2236 378.873L63.0479 389.286C61.0203 390.888 58.1054 390.68 56.3265 388.805L47.1033 379.087C45.3243 377.212 42.4094 377.004 40.3819 378.606L26.4874 389.587C24.6252 391.058 21.9846 391.017 20.1699 389.487L8.27216 379.458C5.96082 377.509 5.89581 373.971 8.13409 371.939L21.65 359.669C22.6931 358.722 23.2879 357.379 23.2879 355.97Z" fill="#FE6A3A" fill-opacity="0" fill-rule="evenodd"/>
	<path id="Vector 16" d="M23.2879 44.5029C23.2879 43.3563 22.8935 42.2446 22.171 41.3544L6.78387 22.3974C5.1543 20.3898 5.32593 17.4705 7.1795 15.6676L19.9151 3.28053C21.8097 1.43779 24.8116 1.38944 26.7646 3.17022L41.0178 16.1669C42.7402 17.7376 45.32 17.9083 47.2344 16.5782L67.9243 2.20412C69.7927 0.906105 72.302 1.03426 74.0284 2.51587L89.8096 16.0594C91.6813 17.6657 94.4451 17.6657 96.3168 16.0594L111.308 3.19366C113.375 1.42032 116.48 1.62827 118.292 3.66124L128.465 15.0786C130.316 17.1554 133.506 17.3208 135.561 15.4466L148.448 3.69584C150.623 1.71288 154.032 2.02987 155.804 4.37979L163.754 14.9251C165.397 17.1036 168.484 17.5615 170.688 15.9536L188.897 2.67006C190.974 1.15511 193.862 1.46336 195.572 3.38259L206.093 15.1904C207.904 17.2234 211.01 17.4314 213.077 15.658L227.968 2.8784C229.883 1.23489 232.723 1.2776 234.587 2.97797L248.397 15.5701C250.399 17.3958 253.492 17.2927 255.368 15.3376L265.833 4.43198C268.027 2.14581 271.767 2.45304 273.558 5.06653L279.654 13.96C281.406 16.5156 285.037 16.877 287.258 14.7168L298.328 3.95038C300.483 1.85358 303.99 2.12273 305.8 4.52402L313.568 14.8273C315.24 17.0441 318.398 17.473 320.6 15.7821L337.47 2.82829C339.546 1.23396 342.501 1.5127 344.242 3.46717L354.221 14.6656C356.208 16.8954 359.694 16.8954 361.681 14.6656L371.019 4.18609C373.005 1.95633 376.492 1.95633 378.479 4.18608L387.952 14.8181C389.89 16.9929 393.27 17.0554 395.287 14.9536L405.896 3.89813C407.912 1.79633 411.292 1.85876 413.23 4.03358L423.262 15.292C425.037 17.2843 428.065 17.5298 430.138 15.8495L446.245 2.79449C448.211 1.20055 451.059 1.32935 452.874 3.09433L465.702 15.5712C467.596 17.4139 470.598 17.4622 472.551 15.6815L485.864 3.54243C487.976 1.61592 491.272 1.85223 493.088 4.06046L502.103 15.0209C503.847 17.141 506.975 17.457 509.108 15.7284L524.659 3.12326C526.792 1.39471 529.92 1.71068 531.664 3.83081L540.678 14.7912C542.495 16.9995 545.79 17.2358 547.903 15.3092L561.094 3.28158C563.096 1.45586 566.188 1.55902 568.064 3.51412L579.83 15.7749C581.531 17.5472 581.691 20.2928 580.207 22.2507L565.706 41.3924C565.048 42.2606 564.692 43.32 564.692 44.4092L564.692 356.072C564.692 357.421 565.238 358.713 566.205 359.653L578.961 372.061C581.031 374.073 580.969 377.415 578.827 379.35L567.826 389.285C566.017 390.919 563.292 391.009 561.38 389.497L546.672 377.874C545.069 376.608 542.857 376.445 541.085 377.463L518.737 390.307C516.861 391.385 514.504 391.134 512.899 389.683L500.194 378.209C498.588 376.759 496.232 376.507 494.356 377.585L472.108 390.371C470.287 391.418 468.005 391.214 466.399 389.86L452.635 378.257C450.901 376.796 448.399 376.685 446.543 377.989L429.16 390.2C427.509 391.36 425.323 391.413 423.618 390.335L403.921 377.882C401.968 376.647 399.424 376.913 397.768 378.523L386.617 389.369C384.961 390.979 382.417 391.245 380.464 390.01L361.28 377.882C359.328 376.647 356.783 376.913 355.127 378.523L344.045 389.302C342.358 390.943 339.754 391.184 337.794 389.88L320.258 378.21C318.167 376.818 315.369 377.195 313.721 379.09L304.942 389.181C303.441 390.906 300.959 391.392 298.918 390.36L273.145 377.324C271.302 376.392 269.074 376.69 267.542 378.075L255.129 389.285C253.32 390.919 250.596 391.009 248.683 389.497L235.061 378.732C232.968 377.078 229.945 377.36 228.194 379.372L219.99 388.803C218.342 390.697 215.543 391.074 213.453 389.683L195.917 378.012C193.957 376.708 191.353 376.949 189.665 378.59L178.727 389.229C177.006 390.903 174.337 391.116 172.372 389.736L155.549 377.918C153.741 376.648 151.313 376.716 149.579 378.086L135.266 389.397C133.299 390.952 130.483 390.808 128.685 389.059L118.08 378.744C116.322 377.034 113.583 376.853 111.615 378.317L96.9548 389.221C94.7871 390.833 91.7305 390.43 90.0546 388.311L83.2397 379.694C81.5286 377.531 78.3878 377.163 76.2236 378.873L63.0479 389.286C61.0203 390.888 58.1054 390.68 56.3265 388.805L47.1033 379.087C45.3243 377.212 42.4094 377.004 40.3819 378.606L26.4874 389.587C24.6252 391.058 21.9846 391.017 20.1699 389.487L8.27216 379.458C5.96082 377.509 5.89581 373.971 8.13409 371.939L21.65 359.669C22.6931 358.722 23.2879 357.379 23.2879 355.97L23.2879 44.5029Z" stroke="#232229" stroke-opacity="1.000000" stroke-width="0.390605" stroke-dasharray="0.78121 0.78121"/>
	<path id="Vector 7" d="M19.382 358.366L19.382 46.8984C19.382 45.7519 18.9876 44.6402 18.2651 43.75L2.87799 24.793C1.24841 22.7854 1.42004 19.866 3.27362 18.0632L16.0092 5.67609C17.9038 3.83336 20.9058 3.78501 22.8587 5.56579L37.1119 18.5625C38.8344 20.1331 41.4141 20.3038 43.3286 18.9738L64.0184 4.59969C65.8868 3.30167 68.3961 3.42982 70.1226 4.91144L85.9037 18.455C87.7754 20.0613 90.5392 20.0613 92.4109 18.455L107.402 5.58923C109.469 3.81589 112.574 4.02383 114.386 6.05681L124.559 17.4742C126.41 19.551 129.6 19.7164 131.656 17.8422L144.542 6.09141C146.717 4.10845 150.126 4.42544 151.898 6.77536L159.848 17.3206C161.491 19.4992 164.578 19.9571 166.782 18.3491L184.991 5.06563C187.068 3.55067 189.956 3.85893 191.666 5.77816L202.187 17.586C203.999 19.619 207.104 19.8269 209.171 18.0536L224.062 5.27397C225.977 3.63046 228.817 3.67317 230.682 5.37354L244.491 17.9657C246.493 19.7914 249.586 19.6882 251.462 17.7331L261.927 6.82755C264.121 4.54138 267.861 4.84861 269.652 7.4621L275.748 16.3555C277.5 18.9111 281.131 19.2726 283.352 17.1123L294.422 6.34595C296.577 4.24915 300.084 4.5183 301.894 6.91959L309.662 17.2228C311.334 19.4397 314.492 19.8686 316.694 18.1776L333.564 5.22385C335.64 3.62953 338.595 3.90827 340.337 5.86274L350.315 17.0612C352.302 19.2909 355.788 19.2909 357.775 17.0612L367.113 6.58166C369.099 4.3519 372.586 4.3519 374.573 6.58165L384.046 17.2137C385.984 19.3885 389.364 19.4509 391.381 17.3491L401.99 6.2937C404.007 4.1919 407.387 4.25433 409.324 6.42915L419.356 17.6876C421.131 19.6799 424.159 19.9254 426.232 18.2451L442.339 5.19006C444.305 3.59612 447.153 3.72492 448.968 5.4899L461.796 17.9667C463.69 19.8095 466.692 19.8578 468.645 18.077L481.958 5.938C484.071 4.01149 487.366 4.2478 489.182 6.45603L498.197 17.4164C499.941 19.5366 503.069 19.8525 505.202 18.124L520.753 5.51883C522.886 3.79028 526.014 4.10625 527.758 6.22638L536.773 17.1868C538.589 19.395 541.885 19.6313 543.997 17.7048L557.188 5.67715C559.19 3.85143 562.282 3.95459 564.159 5.90969L575.924 18.1704C577.625 19.9427 577.785 22.6884 576.301 24.6463L561.8 43.788C561.143 44.6562 560.786 45.7156 560.786 46.8048L560.786 358.468C560.786 359.817 561.332 361.108 562.299 362.049L575.056 374.456C577.125 376.469 577.063 379.811 574.921 381.745L563.92 391.681C562.111 393.315 559.386 393.404 557.474 391.893L542.766 380.27C541.164 379.003 538.951 378.84 537.179 379.858L514.831 392.703C512.955 393.781 510.599 393.529 508.993 392.079L496.288 380.604C494.682 379.154 492.326 378.902 490.45 379.98L468.202 392.767C466.381 393.814 464.099 393.609 462.493 392.255L448.729 380.653C446.995 379.191 444.493 379.081 442.637 380.385L425.254 392.596C423.603 393.755 421.417 393.809 419.713 392.731L400.015 380.277C398.062 379.043 395.518 379.308 393.862 380.919L382.711 391.764C381.055 393.375 378.511 393.64 376.558 392.406L357.374 380.277C355.422 379.043 352.877 379.308 351.221 380.919L340.139 391.698C338.452 393.339 335.848 393.579 333.888 392.275L316.352 380.605C314.261 379.214 311.463 379.591 309.815 381.485L301.036 391.576C299.535 393.302 297.053 393.788 295.012 392.755L269.239 379.72C267.396 378.788 265.169 379.086 263.636 380.47L251.223 391.681C249.414 393.315 246.69 393.404 244.777 391.893L231.155 381.127C229.062 379.473 226.039 379.755 224.288 381.768L216.084 391.198C214.436 393.093 211.638 393.469 209.547 392.078L192.011 380.408C190.051 379.104 187.447 379.344 185.759 380.986L174.821 391.624C173.1 393.299 170.431 393.511 168.466 392.131L151.643 380.313C149.835 379.043 147.407 379.112 145.674 380.482L131.36 391.793C129.393 393.348 126.577 393.203 124.779 391.455L114.174 381.14C112.416 379.43 109.677 379.249 107.709 380.712L93.0489 391.616C90.8812 393.228 87.8246 392.826 86.1487 390.707L79.3339 382.09C77.6227 379.926 74.4819 379.559 72.3177 381.269L59.142 391.681C57.1144 393.284 54.1995 393.075 52.4206 391.201L43.1974 381.482C41.4185 379.608 38.5035 379.4 36.476 381.002L22.5815 391.982C20.7194 393.454 18.0787 393.412 16.264 391.882L4.36627 381.853C2.05493 379.905 1.98993 376.366 4.22821 374.334L17.7441 362.065C18.7872 361.118 19.382 359.774 19.382 358.366Z" fill="#FE6A3A" fill-opacity="1.000000" fill-rule="evenodd"/>
	<path id="Vector 7" d="M19.382 46.8984C19.382 45.7519 18.9876 44.6402 18.2651 43.75L2.87799 24.793C1.24841 22.7854 1.42004 19.866 3.27362 18.0632L16.0092 5.67609C17.9038 3.83336 20.9058 3.78501 22.8587 5.56579L37.1119 18.5625C38.8344 20.1331 41.4141 20.3038 43.3286 18.9738L64.0184 4.59969C65.8868 3.30167 68.3961 3.42982 70.1226 4.91144L85.9037 18.455C87.7754 20.0613 90.5392 20.0613 92.4109 18.455L107.402 5.58923C109.469 3.81589 112.574 4.02383 114.386 6.05681L124.559 17.4742C126.41 19.551 129.6 19.7164 131.656 17.8422L144.542 6.09141C146.717 4.10845 150.126 4.42544 151.898 6.77536L159.848 17.3206C161.491 19.4992 164.578 19.9571 166.782 18.3491L184.991 5.06563C187.068 3.55067 189.956 3.85893 191.666 5.77816L202.187 17.586C203.999 19.619 207.104 19.8269 209.171 18.0536L224.062 5.27397C225.977 3.63046 228.817 3.67317 230.682 5.37354L244.491 17.9657C246.493 19.7914 249.586 19.6882 251.462 17.7331L261.927 6.82755C264.121 4.54138 267.861 4.84861 269.652 7.4621L275.748 16.3555C277.5 18.9111 281.131 19.2726 283.352 17.1123L294.422 6.34595C296.577 4.24915 300.084 4.5183 301.894 6.91959L309.662 17.2228C311.334 19.4397 314.492 19.8686 316.694 18.1776L333.564 5.22385C335.64 3.62953 338.595 3.90827 340.337 5.86274L350.315 17.0612C352.302 19.2909 355.788 19.2909 357.775 17.0612L367.113 6.58166C369.099 4.3519 372.586 4.3519 374.573 6.58165L384.046 17.2137C385.984 19.3885 389.364 19.4509 391.381 17.3491L401.99 6.2937C404.007 4.1919 407.387 4.25433 409.324 6.42915L419.356 17.6876C421.131 19.6799 424.159 19.9254 426.232 18.2451L442.339 5.19006C444.305 3.59612 447.153 3.72492 448.968 5.4899L461.796 17.9667C463.69 19.8095 466.692 19.8578 468.645 18.077L481.958 5.938C484.071 4.01149 487.366 4.2478 489.182 6.45603L498.197 17.4164C499.941 19.5366 503.069 19.8525 505.202 18.124L520.753 5.51883C522.886 3.79028 526.014 4.10625 527.758 6.22638L536.773 17.1868C538.589 19.395 541.885 19.6313 543.997 17.7048L557.188 5.67715C559.19 3.85143 562.282 3.95459 564.159 5.90969L575.924 18.1704C577.625 19.9427 577.785 22.6884 576.301 24.6463L561.8 43.788C561.143 44.6562 560.786 45.7156 560.786 46.8048L560.786 358.468C560.786 359.817 561.332 361.108 562.299 362.049L575.056 374.456C577.125 376.469 577.063 379.811 574.921 381.745L563.92 391.681C562.111 393.315 559.386 393.404 557.474 391.893L542.766 380.27C541.164 379.003 538.951 378.84 537.179 379.858L514.831 392.703C512.955 393.781 510.599 393.529 508.993 392.079L496.288 380.604C494.682 379.154 492.326 378.902 490.45 379.98L468.202 392.767C466.381 393.814 464.099 393.609 462.493 392.255L448.729 380.653C446.995 379.191 444.493 379.081 442.637 380.385L425.254 392.596C423.603 393.755 421.417 393.809 419.713 392.731L400.015 380.277C398.062 379.043 395.518 379.308 393.862 380.919L382.711 391.764C381.055 393.375 378.511 393.64 376.558 392.406L357.374 380.277C355.422 379.043 352.877 379.308 351.221 380.919L340.139 391.698C338.452 393.339 335.848 393.579 333.888 392.275L316.352 380.605C314.261 379.214 311.463 379.591 309.815 381.485L301.036 391.576C299.535 393.302 297.053 393.788 295.012 392.755L269.239 379.72C267.396 378.788 265.169 379.086 263.636 380.47L251.223 391.681C249.414 393.315 246.69 393.404 244.777 391.893L231.155 381.127C229.062 379.473 226.039 379.755 224.288 381.768L216.084 391.198C214.436 393.093 211.638 393.469 209.547 392.078L192.011 380.408C190.051 379.104 187.447 379.344 185.759 380.986L174.821 391.624C173.1 393.299 170.431 393.511 168.466 392.131L151.643 380.313C149.835 379.043 147.407 379.112 145.674 380.482L131.36 391.793C129.393 393.348 126.577 393.203 124.779 391.455L114.174 381.14C112.416 379.43 109.677 379.249 107.709 380.712L93.0489 391.616C90.8812 393.228 87.8246 392.826 86.1487 390.707L79.3339 382.09C77.6227 379.926 74.4819 379.559 72.3177 381.269L59.142 391.681C57.1144 393.284 54.1995 393.075 52.4206 391.201L43.1974 381.482C41.4185 379.608 38.5035 379.4 36.476 381.002L22.5815 391.982C20.7194 393.454 18.0787 393.412 16.264 391.882L4.36627 381.853C2.05493 379.905 1.98993 376.366 4.22821 374.334L17.7441 362.065C18.7872 361.118 19.382 359.774 19.382 358.366L19.382 46.8984Z" stroke="#000000" stroke-opacity="0" stroke-width="2.737722"/>
</svg>
