<svg width="112.476379" height="111.734589" viewBox="0 0 112.476 111.735" fill="none" xmlns="http://www.w3.org/2000/svg" xmlns:xlink="http://www.w3.org/1999/xlink">
	<desc>
			Created with Pixso.
	</desc>
	<defs/>
	<path id="Форма 2" d="M52.1662 6.5697L47.7486 10.3637C46.2419 11.6576 44.21 12.1584 42.2747 11.7129L36.5999 10.4065C33.5915 9.71388 30.5281 11.3217 29.3891 14.191L27.2406 19.6034C26.5078 21.4492 24.9414 22.837 23.0207 23.3419L17.3888 24.8223C14.4031 25.6071 12.4378 28.4544 12.7627 31.5244L13.3755 37.3153C13.5845 39.2902 12.8425 41.2469 11.3764 42.5866L7.07758 46.5148C4.79861 48.5972 4.38162 52.0317 6.09598 54.599L9.3298 59.4418C10.4327 61.0934 10.6849 63.1708 10.0093 65.0384L8.02844 70.5143C6.9783 73.4173 8.20511 76.6522 10.9162 78.1288L16.0302 80.914C17.7743 81.8639 18.963 83.5861 19.2328 85.5537L20.0236 91.323C20.4428 94.3815 23.0324 96.6757 26.1191 96.7232L31.9417 96.8128C33.9274 96.8434 35.7804 97.8159 36.9336 99.4328L40.3149 104.174C42.1075 106.687 45.4667 107.515 48.222 106.123L53.4192 103.496C55.1917 102.6 57.2844 102.6 59.0569 103.496L64.2542 106.123C67.0094 107.515 70.3685 106.687 72.1611 104.174L75.5425 99.4328C76.6957 97.8159 78.5486 96.8434 80.5344 96.8128L86.3569 96.7232C89.4437 96.6757 92.0333 94.3815 92.4525 91.323L93.2433 85.5537C93.513 83.5861 94.7018 81.8638 96.4459 80.9139L101.56 78.1287C104.271 76.6522 105.498 73.4173 104.448 70.5143L102.467 65.0384C101.791 63.1708 102.043 61.0934 103.146 59.4418L106.38 54.599C108.094 52.0317 107.677 48.5972 105.398 46.5147L101.1 42.5866C99.6336 41.2469 98.8915 39.2902 99.1005 37.3152L99.7134 31.5244C100.038 28.4544 98.0729 25.6071 95.0873 24.8223L89.4554 23.3419C87.5347 22.837 85.9682 21.4492 85.2355 19.6034L83.087 14.191C81.948 11.3217 78.8846 9.71388 75.8762 10.4064L70.2014 11.7129C68.2661 12.1584 66.2341 11.6576 64.7275 10.3637L60.3099 6.5697C57.9679 4.55838 54.5082 4.55838 52.1662 6.5697Z" fill="#FBC800" fill-opacity="1.000000" fill-rule="evenodd"/>
	<path id="Форма 2" d="M48.3308 40.0299L45.4608 40.0299L45.4608 48.6079L45.3372 48.6079L39.4553 40.0299L36.924 40.0299L36.924 53.666L39.8077 53.666L39.8077 45.0833L39.9084 45.0833L45.8408 53.666L48.3308 53.666L48.3308 40.0299Z" fill="#232229" fill-opacity="1.000000" fill-rule="nonzero"/>
	<path id="Форма 2" d="M55.311 53.8674C57.8423 53.8674 59.5496 52.636 59.9479 50.7364L57.325 50.5625C57.0367 51.3406 56.3043 51.748 55.3613 51.748C53.9423 51.748 53.0406 50.8097 53.0406 49.2854L53.0406 49.2762L60.0074 49.2762L60.0074 48.4981C60.0074 45.0238 57.9018 43.3073 55.2011 43.3073C52.1892 43.3073 50.2392 45.4449 50.2392 48.5988C50.2392 51.8396 52.1617 53.8674 55.311 53.8674ZM53.0406 47.5185C53.1047 46.3559 53.9881 45.4221 55.2469 45.4221C56.4782 45.4221 57.3296 46.3009 57.3388 47.5185L53.0406 47.5185Z" fill="#232229" fill-opacity="1.000000" fill-rule="nonzero"/>
	<path id="Форма 2" d="M63.7954 53.666L66.7936 53.666L68.5513 47.2347L68.6749 47.2347L70.4326 53.666L73.4354 53.666L76.2139 43.44L73.3484 43.44L71.7921 50.2695L71.7051 50.2695L70.0253 43.44L67.2101 43.44L65.5577 50.3107L65.4661 50.3107L63.8824 43.44L61.0123 43.44L63.7954 53.666Z" fill="#232229" fill-opacity="1.000000" fill-rule="nonzero"/>
	<path id="Форма 2" d="M25.3257 74.666L34.54 74.666L34.54 72.2903L28.2094 72.2903L28.2094 69.0312L34.041 69.0312L34.041 66.6555L28.2094 66.6555L28.2094 63.4055L34.5125 63.4055L34.5125 61.0299L25.3257 61.0299L25.3257 74.666Z" fill="#232229" fill-opacity="1.000000" fill-rule="nonzero"/>
	<path id="Форма 2" d="M40.5276 74.8307C42.1755 74.8307 43.036 73.8786 43.4297 73.0273L43.5487 73.0273L43.5487 74.666L46.3455 74.666L46.3455 61.0299L43.5167 61.0299L43.5167 66.1566L43.4297 66.1566C43.0498 65.3235 42.2304 64.3073 40.5185 64.3073C38.2755 64.3073 36.3759 66.0513 36.3759 69.5667C36.3759 72.9861 38.1932 74.8307 40.5276 74.8307ZM41.4248 72.5741C40.0333 72.5741 39.2734 71.3382 39.2734 69.553C39.2734 67.7816 40.0195 66.564 41.4248 66.564C42.8026 66.564 43.5762 67.7266 43.5762 69.553C43.5762 71.3748 42.7889 72.5741 41.4248 72.5741Z" fill="#232229" fill-opacity="1.000000" fill-rule="nonzero"/>
	<path id="Форма 2" d="M48.6671 74.666L51.5051 74.666L51.5051 64.44L48.6671 64.44L48.6671 74.666ZM50.0952 63.1217C50.9375 63.1217 51.6332 62.4763 51.6332 61.6844C51.6332 60.8971 50.9375 60.2517 50.0952 60.2517C49.253 60.2517 48.5618 60.8971 48.5618 61.6844C48.5618 62.4763 49.253 63.1217 50.0952 63.1217Z" fill="#232229" fill-opacity="1.000000" fill-rule="nonzero"/>
	<path id="Форма 2" d="M59.2097 64.44L57.2826 64.44L57.2826 61.9911L54.4492 61.9911L54.4492 64.44L53.0485 64.44L53.0485 66.5685L54.4492 66.5685L54.4492 71.8966C54.4355 73.9015 55.7995 74.8903 57.8548 74.8079C58.5872 74.7804 59.1089 74.6339 59.3928 74.5378L58.9488 72.4276C58.8069 72.4551 58.5093 72.5237 58.2438 72.5237C57.6762 72.5237 57.2826 72.3086 57.2826 71.5213L57.2826 66.5685L59.2097 66.5685L59.2097 64.44Z" fill="#232229" fill-opacity="1.000000" fill-rule="nonzero"/>
	<path id="Форма 2" d="M61.051 74.666L63.889 74.666L63.889 64.44L61.051 64.44L61.051 74.666ZM62.4792 63.1217C63.3214 63.1217 64.0172 62.4763 64.0172 61.6844C64.0172 60.8971 63.3214 60.2517 62.4792 60.2517C61.637 60.2517 60.9457 60.8971 60.9457 61.6844C60.9457 62.4763 61.637 63.1217 62.4792 63.1217Z" fill="#232229" fill-opacity="1.000000" fill-rule="nonzero"/>
	<path id="Форма 2" d="M70.7743 74.8674C73.8777 74.8674 75.8048 72.7434 75.8048 69.5942C75.8048 66.4221 73.8777 64.3073 70.7743 64.3073C67.6708 64.3073 65.7391 66.4221 65.7391 69.5942C65.7391 72.7434 67.6708 74.8674 70.7743 74.8674ZM70.788 72.6702C69.3553 72.6702 68.6229 71.3565 68.6229 69.5713C68.6229 67.7861 69.3553 66.4678 70.788 66.4678C72.1932 66.4678 72.9257 67.7861 72.9257 69.5713C72.9257 71.3565 72.1932 72.6702 70.788 72.6702Z" fill="#232229" fill-opacity="1.000000" fill-rule="nonzero"/>
	<path id="Форма 2" d="M80.4941 68.752C80.4988 67.4337 81.2861 66.6646 82.4304 66.6646C83.5702 66.6646 84.2568 67.4108 84.2476 68.6604L84.2476 74.666L87.0856 74.666L87.0856 68.1523C87.0856 65.7721 85.6849 64.3073 83.5565 64.3073C82.0367 64.3073 80.9382 65.0534 80.4805 66.2435L80.3615 66.2435L80.3615 64.44L77.6562 64.44L77.6562 74.666L80.4941 74.666L80.4941 68.752Z" fill="#232229" fill-opacity="1.000000" fill-rule="nonzero"/>
	<path id="Форма 2" d="M52.1664 1.8826L46.7953 6.49542C45.2886 7.78934 43.2567 8.29016 41.3214 7.84462L34.4218 6.25626C31.4134 5.56367 28.35 7.17148 27.211 10.0408L24.5988 16.6213C23.866 18.4672 22.2996 19.8549 20.3789 20.3598L13.5314 22.1598C10.5457 22.9446 8.58041 25.7919 8.90533 28.8619L9.65045 35.9026C9.85947 37.8776 9.11737 39.8343 7.65131 41.174L2.42468 45.9499C0.145721 48.0324 -0.271301 51.4668 1.44308 54.0342L5.37485 59.9221C6.47772 61.5738 6.72998 63.6512 6.05441 65.5188L3.64597 72.1766C2.59583 75.0796 3.82263 78.3145 6.53375 79.791L12.7514 83.1774C14.4955 84.1273 15.6843 85.8495 15.954 87.8171L16.9155 94.8316C17.3347 97.8901 19.9243 100.184 23.0111 100.232L30.0903 100.341C32.076 100.371 33.9291 101.344 35.0823 102.961L39.1934 108.725C40.986 111.238 44.3451 112.066 47.1004 110.674L53.4194 107.48C55.1919 106.585 57.2846 106.585 59.0571 107.48L65.376 110.674C68.1313 112.066 71.4905 111.238 73.2831 108.725L77.3942 102.961C78.5474 101.344 80.4004 100.371 82.3861 100.341L89.4653 100.232C92.5521 100.184 95.1417 97.8901 95.5609 94.8316L96.5224 87.8171C96.7921 85.8495 97.9809 84.1273 99.725 83.1774L105.943 79.791C108.654 78.3144 109.881 75.0796 108.83 72.1766L106.422 65.5188C105.746 63.6512 105.999 61.5738 107.102 59.9221L111.033 54.0342C112.748 51.4668 112.331 48.0324 110.052 45.9499L104.825 41.174C103.359 39.8343 102.617 37.8775 102.826 35.9026L103.571 28.8618C103.896 25.7919 101.931 22.9446 98.945 22.1598L92.0975 20.3598C90.1768 19.8549 88.6104 18.4672 87.8777 16.6213L85.2654 10.0408C84.1265 7.17146 81.063 5.56367 78.0546 6.25624L71.155 7.84462C69.2197 8.29016 67.1877 7.78934 65.6812 6.49542L60.3101 1.8826C57.968 -0.128723 54.5084 -0.128723 52.1664 1.8826Z" fill="#FBC800" fill-opacity="0" fill-rule="evenodd"/>
	<path id="Форма 2" d="M46.7081 11.5305Q46.2492 11.766 45.7592 11.9278L45.5142 11.186Q45.9466 11.0432 46.3515 10.8355L46.7081 11.5305ZM44.7631 12.1733Q44.254 12.2578 43.7382 12.2626L43.731 11.4814Q44.186 11.4772 44.6353 11.4026L44.7631 12.1733ZM42.7028 12.191Q42.4431 12.1525 42.187 12.0935L41.7141 11.9846L41.8894 11.2233L42.3623 11.3322Q42.5883 11.3842 42.8175 11.4182L42.7028 12.191ZM40.7683 11.7669L39.8225 11.5492L39.9978 10.7879L40.9436 11.0056L40.7683 11.7669ZM38.8767 11.3315L37.9309 11.1137L38.1062 10.3524L39.052 10.5701L38.8767 11.3315ZM36.9851 10.896L36.5123 10.7871Q36.3062 10.7397 36.0982 10.7072L36.2188 9.93533Q36.4544 9.97214 36.6875 10.0258L37.1604 10.1347L36.9851 10.896ZM35.2736 10.6375Q34.8661 10.632 34.4618 10.6833L34.3635 9.90828Q34.822 9.85011 35.2841 9.85632L35.2736 10.6375ZM33.6513 10.845Q33.2539 10.954 32.8751 11.1178L32.5652 10.4007Q32.9943 10.2152 33.4447 10.0916L33.6513 10.845ZM32.1455 11.4955Q31.793 11.7106 31.4743 11.9725L30.9782 11.369Q31.3393 11.0722 31.7388 10.8286L32.1455 11.4955ZM30.8733 12.5424Q30.5899 12.8522 30.3539 13.1992L29.7079 12.7599Q29.9755 12.3663 30.2969 12.0151L30.8733 12.5424ZM29.9272 13.9373Q29.8325 14.1326 29.7521 14.3351L29.5731 14.7861L28.847 14.4979L29.026 14.0469Q29.117 13.8177 29.2242 13.5965L29.9272 13.9373ZM29.215 15.6882L28.8569 16.5903L28.1308 16.302L28.4889 15.4L29.215 15.6882ZM28.4988 17.4923L28.1407 18.3944L27.4146 18.1062L27.7727 17.2041L28.4988 17.4923ZM27.7827 19.2965L27.6036 19.7475Q27.5067 19.9917 27.3908 20.2274L26.6898 19.8827Q26.7919 19.6748 26.8775 19.4593L27.0566 19.0082L27.7827 19.2965ZM26.8616 21.1201Q26.5646 21.5419 26.2059 21.9129L25.6443 21.3699Q25.9608 21.0425 26.2228 20.6704L26.8616 21.1201ZM25.438 22.5932Q25.0266 22.9045 24.5721 23.1485L24.2026 22.4601Q24.6036 22.2449 24.9667 21.9702L25.438 22.5932ZM23.622 23.5663Q23.3741 23.6528 23.12 23.7197L22.6507 23.843L22.4521 23.0875L22.9214 22.9641Q23.1457 22.9051 23.3644 22.8288L23.622 23.5663ZM21.712 24.0898L20.7734 24.3365L20.5748 23.5809L21.5134 23.3342L21.712 24.0898ZM19.8347 24.5832L18.8961 24.83L18.6974 24.0744L19.6361 23.8277L19.8347 24.5832ZM17.9574 25.0767L17.4881 25.2001Q17.2773 25.2555 17.0721 25.3259L16.8185 24.587Q17.051 24.5072 17.2895 24.4445L17.7588 24.3212L17.9574 25.0767ZM16.288 25.6605Q15.915 25.853 15.5733 26.097L15.1193 25.4613Q15.5067 25.1846 15.9297 24.9663L16.288 25.6605ZM14.9352 26.6249Q14.6367 26.9097 14.3807 27.2338L13.7677 26.7496Q14.0577 26.3824 14.3958 26.0597L14.9352 26.6249ZM13.9178 27.9125Q13.7096 28.2688 13.5535 28.6502L12.8305 28.3542Q13.0074 27.9221 13.2432 27.5184L13.9178 27.9125ZM13.2952 29.4353Q13.1955 29.8304 13.1519 30.2356L12.3752 30.1518Q12.4247 29.6924 12.5377 29.2442L13.2952 29.4353ZM13.1217 31.0626Q13.1288 31.2731 13.1511 31.4833L13.2022 31.9659L12.4253 32.0481L12.3742 31.5655Q12.3491 31.3276 12.3409 31.0892L13.1217 31.0626ZM13.3043 32.931L13.4065 33.8961L12.6296 33.9784L12.5275 33.0132L13.3043 32.931ZM13.5086 34.8613L13.6108 35.8264L12.8339 35.9086L12.7318 34.9435L13.5086 34.8613ZM13.7129 36.7916L13.764 37.2742Q13.7916 37.5355 13.7986 37.7979L13.0176 37.8186Q13.0115 37.587 12.9871 37.3564L12.936 36.8738L13.7129 36.7916ZM13.7448 38.8344Q13.6779 39.3459 13.5327 39.841L12.7831 39.6212Q12.9112 39.1843 12.9702 38.733L13.7448 38.8344ZM13.1689 40.8002Q12.9492 41.2672 12.6602 41.6944L12.0131 41.2566Q12.2682 40.8797 12.462 40.4677L13.1689 40.8002ZM12.0131 42.5059Q11.8339 42.6977 11.6399 42.875L11.2816 43.2023L10.7546 42.6256L11.1129 42.2982Q11.2841 42.1418 11.4423 41.9725L12.0131 42.5059ZM10.5652 43.857L9.84869 44.5117L9.32172 43.935L10.0382 43.2803L10.5652 43.857ZM9.13223 45.1664L8.41577 45.8211L7.88879 45.2444L8.60526 44.5897L9.13223 45.1664ZM7.69931 46.4758L7.34106 46.8031Q7.18024 46.9501 7.03116 47.1079L6.46326 46.5714Q6.63205 46.3927 6.81409 46.2264L7.17233 45.8991L7.69931 46.4758ZM6.49237 47.7685Q6.25156 48.1123 6.06244 48.4871L5.36499 48.1352Q5.57947 47.7101 5.85257 47.3203L6.49237 47.7685ZM5.74271 49.2512Q5.61078 49.642 5.53476 50.0479L4.76691 49.9041Q4.85306 49.4442 5.00253 49.0013L5.74271 49.2512ZM5.44022 50.864Q5.42148 51.2763 5.46048 51.6865L4.68277 51.7605Q4.63858 51.2956 4.65982 50.8285L5.44022 50.864ZM5.59662 52.5017Q5.69205 52.8979 5.84164 53.2769L5.11499 53.5638Q4.94534 53.1339 4.83713 52.6846L5.59662 52.5017ZM6.19925 54.0233Q6.30344 54.2063 6.42081 54.3821L6.69031 54.7856L6.04062 55.2195L5.77115 54.8159Q5.63831 54.617 5.52032 54.4097L6.19925 54.0233ZM7.22928 55.5928L7.76825 56.3999L7.11856 56.8337L6.57959 56.0266L7.22928 55.5928ZM8.30722 57.207L8.84619 58.0142L8.1965 58.448L7.65753 57.6409L8.30722 57.207ZM9.38516 58.8213L9.65463 59.2249Q9.80057 59.4434 9.92868 59.6725L9.24683 60.0538Q9.13376 59.8516 9.00497 59.6587L8.73547 59.2551L9.38516 58.8213ZM10.3628 60.6153Q10.5412 61.0993 10.6427 61.6052L9.8768 61.7589Q9.7872 61.3125 9.62976 60.8855L10.3628 60.6153ZM10.7664 62.6236Q10.7888 63.1392 10.7314 63.6518L9.95508 63.5648Q10.0057 63.1125 9.98593 62.6576L10.7664 62.6236ZM10.5356 64.6709Q10.4661 64.9241 10.3766 65.1712L10.2116 65.6276L9.47696 65.3618L9.64203 64.9055Q9.72092 64.6874 9.78229 64.464L10.5356 64.6709ZM9.88144 66.5402L9.55127 67.4529L8.81665 67.1871L9.14679 66.2745L9.88144 66.5402ZM9.22113 68.3655L8.89099 69.2782L8.15637 69.0125L8.48651 68.0998L9.22113 68.3655ZM8.56082 70.1909L8.39575 70.6472Q8.32385 70.8459 8.26648 71.0486L7.5148 70.8359Q7.57974 70.6064 7.66113 70.3814L7.8262 69.9251L8.56082 70.1909ZM8.0979 71.8588Q8.04333 72.2626 8.04553 72.6702L7.26431 72.6743Q7.26184 72.2122 7.32373 71.7542L8.0979 71.8588ZM8.1084 73.4942Q8.16873 73.9019 8.28558 74.2977L7.53635 74.5189Q7.40396 74.0705 7.3356 73.6086L8.1084 73.4942ZM8.57266 75.0675Q8.74365 75.4434 8.96527 75.7913L8.30637 76.211Q8.05527 75.8168 7.86154 75.3909L8.57266 75.0675ZM9.45856 76.4566Q9.7319 76.7753 10.048 77.0515L9.53403 77.6398Q9.1756 77.3267 8.8656 76.9652L9.45856 76.4566ZM10.7292 77.564Q10.9117 77.6815 11.1031 77.7857L11.5292 78.0178L11.1556 78.7039L10.7294 78.4718Q10.5129 78.3539 10.3062 78.2207L10.7292 77.564ZM12.3815 78.482L13.2339 78.9462L12.8602 79.6323L12.0079 79.1681L12.3815 78.482ZM14.0862 79.4104L14.9385 79.8746L14.5648 80.5607L13.7125 80.0965L14.0862 79.4104ZM15.7908 80.3388L16.217 80.571Q16.4478 80.6967 16.6677 80.84L16.2411 81.4944Q16.047 81.368 15.8433 81.257L15.4172 81.0249L15.7908 80.3388ZM17.4901 81.473Q17.873 81.8186 18.1981 82.2194L17.5914 82.7115Q17.3045 82.3578 16.9667 82.0529L17.4901 81.473ZM18.7809 83.0637Q19.0404 83.5098 19.2278 83.9904L18.4999 84.2741Q18.3346 83.8501 18.1056 83.4565L18.7809 83.0637ZM19.528 84.9838Q19.584 85.2403 19.6198 85.5007L19.6856 85.9814L18.9117 86.0875L18.8458 85.6068Q18.8143 85.377 18.7648 85.1507L19.528 84.9838ZM19.8174 86.943L19.9492 87.9045L19.1753 88.0106L19.0435 87.0491L19.8174 86.943ZM20.0811 88.8661L20.2128 89.8276L19.4389 89.9337L19.3071 88.9721L20.0811 88.8661ZM20.3446 90.7892L20.4106 91.2699Q20.4399 91.4841 20.4846 91.6947L19.7204 91.8569Q19.6698 91.6184 19.6366 91.376L19.5707 90.8952L20.3446 90.7892ZM20.7195 92.5074Q20.8638 92.898 21.0622 93.2643L20.3753 93.6364Q20.1503 93.2211 19.9867 92.778L20.7195 92.5074ZM21.5036 93.9576Q21.747 94.2865 22.0342 94.5789L21.4769 95.1263Q21.1516 94.7951 20.8757 94.4224L21.5036 93.9576ZM22.6447 95.1197Q22.9695 95.3695 23.3253 95.5715L22.9396 96.2509Q22.5363 96.0219 22.1684 95.7389L22.6447 95.1197ZM24.0667 95.9261Q24.4543 96.079 24.8595 96.1751L24.6791 96.9352Q24.2196 96.8262 23.7801 96.6528L24.0667 95.9261ZM25.6945 96.3103Q25.9091 96.3293 26.1252 96.3326L26.6104 96.3401L26.5983 97.1212L26.1131 97.1138Q25.8686 97.11 25.6256 97.0885L25.6945 96.3103ZM27.5808 96.3551L28.5512 96.37L28.5392 97.1511L27.5688 97.1362L27.5808 96.3551ZM29.5216 96.3849L30.4921 96.3999L30.48 97.181L29.5096 97.166L29.5216 96.3849ZM31.4625 96.4148L31.9477 96.4223Q32.2105 96.4263 32.4718 96.451L32.3982 97.2288Q32.1675 97.2069 31.9357 97.2034L31.4504 97.1959L31.4625 96.4148ZM33.4942 96.6294Q33.9939 96.7574 34.468 96.9613L34.1594 97.679Q33.7411 97.4991 33.3002 97.3861L33.4942 96.6294ZM35.3763 97.438Q35.8134 97.7124 36.2027 98.0508L35.6901 98.6404Q35.3467 98.3418 34.961 98.0996L35.3763 97.438ZM36.9302 98.791Q37.099 98.992 37.2516 99.206L37.5334 99.6011L36.8974 100.055L36.6156 99.6596Q36.481 99.4709 36.3319 99.2934L36.9302 98.791ZM38.097 100.391L38.6605 101.181L38.0245 101.635L37.4609 100.845L38.097 100.391ZM39.2241 101.972L39.7876 102.762L39.1516 103.215L38.588 102.425L39.2241 101.972ZM40.3512 103.552L40.6329 103.947Q40.7595 104.124 40.8981 104.291L40.2971 104.79Q40.1401 104.601 39.9969 104.401L39.7151 104.005L40.3512 103.552ZM41.489 104.906Q41.8013 105.186 42.1506 105.419L41.7172 106.069Q41.321 105.805 40.967 105.487L41.489 104.906ZM42.8705 105.829Q43.2426 106.007 43.6364 106.131L43.4011 106.876Q42.9549 106.735 42.5333 106.533L42.8705 105.829ZM44.4352 106.323Q44.8421 106.392 45.2541 106.402L45.2338 107.183Q44.767 107.171 44.3059 107.094L44.4352 106.323ZM46.0797 106.366Q46.4845 106.319 46.8789 106.216L47.076 106.972Q46.6288 107.088 46.1698 107.142L46.0797 106.366ZM47.6628 105.951Q47.8571 105.869 48.0458 105.774L48.4789 105.555L48.8312 106.252L48.3981 106.471Q48.1847 106.579 47.9647 106.671L47.6628 105.951ZM49.3451 105.117L50.2113 104.68L50.5636 105.377L49.6974 105.815L49.3451 105.117ZM51.0775 104.242L51.9437 103.804L52.2961 104.501L51.4299 104.939L51.0775 104.242ZM52.8099 103.366L53.243 103.147Q53.4776 103.029 53.7205 102.929L54.0167 103.652Q53.8024 103.74 53.5954 103.845L53.1623 104.064L52.8099 103.366ZM54.7086 102.612Q55.2107 102.493 55.7251 102.454L55.7854 103.232Q55.3314 103.268 54.8885 103.372L54.7086 102.612ZM56.751 102.454Q57.2654 102.493 57.7674 102.612L57.5875 103.372Q57.1447 103.268 56.6907 103.232L56.751 102.454ZM58.7556 102.929Q58.9985 103.029 59.233 103.147L59.6662 103.366L59.3138 104.064L58.8807 103.845Q58.6737 103.74 58.4594 103.652L58.7556 102.929ZM60.5323 103.804L61.3986 104.242L61.0462 104.939L60.1801 104.501L60.5323 103.804ZM62.2648 104.68L63.131 105.117L62.7787 105.815L61.9125 105.377L62.2648 104.68ZM63.9972 105.555L64.4303 105.774Q64.619 105.869 64.8132 105.951L64.5115 106.671Q64.2915 106.579 64.078 106.471L63.6448 106.252L63.9972 105.555ZM65.5972 106.216Q65.9916 106.319 66.3964 106.366L66.3063 107.142Q65.8472 107.088 65.4001 106.972L65.5972 106.216ZM67.222 106.402Q67.634 106.392 68.041 106.323L68.1702 107.094Q67.7091 107.171 67.2423 107.183L67.222 106.402ZM68.8397 106.131Q69.2335 106.007 69.6056 105.829L69.9428 106.533Q69.5212 106.735 69.075 106.876L68.8397 106.131ZM70.3255 105.419Q70.6748 105.186 70.987 104.906L71.5091 105.487Q71.155 105.805 70.7589 106.069L70.3255 105.419ZM71.5779 104.291Q71.7166 104.124 71.8431 103.947L72.1249 103.552L72.7609 104.005L72.4791 104.401Q72.3359 104.601 72.179 104.79L71.5779 104.291ZM72.6885 102.762L73.252 101.972L73.8881 102.425L73.3245 103.215L72.6885 102.762ZM73.8156 101.181L74.3792 100.391L75.0151 100.845L74.4516 101.635L73.8156 101.181ZM74.9427 99.6011L75.2245 99.206Q75.3771 98.992 75.5459 98.791L76.1442 99.2934Q75.9951 99.4708 75.8605 99.6596L75.5787 100.055L74.9427 99.6011ZM76.2734 98.0508Q76.6627 97.7124 77.0997 97.438L77.5151 98.0996Q77.1295 98.3417 76.786 98.6404L76.2734 98.0508ZM78.0081 96.9613Q78.4822 96.7574 78.9819 96.6293L79.1758 97.3861Q78.735 97.4991 78.3167 97.679L78.0081 96.9613ZM80.0043 96.451Q80.2656 96.4263 80.5284 96.4223L81.0136 96.4148L81.0256 97.1959L80.5404 97.2034Q80.3086 97.207 80.0779 97.2288L80.0043 96.451ZM81.984 96.3999L82.9545 96.3849L82.9665 97.166L81.9961 97.181L81.984 96.3999ZM83.9249 96.37L84.8953 96.355L84.9073 97.1361L83.9369 97.1511L83.9249 96.37ZM85.8657 96.3401L86.351 96.3326Q86.567 96.3293 86.7816 96.3103L86.8505 97.0885Q86.6075 97.11 86.3629 97.1137L85.8777 97.1212L85.8657 96.3401ZM87.6166 96.1751Q88.0218 96.0789 88.4093 95.9261L88.6959 96.6528Q88.2565 96.8261 87.7969 96.9352L87.6166 96.1751ZM89.1507 95.5715Q89.5066 95.3695 89.8314 95.1197L90.3077 95.7389Q89.9398 96.0219 89.5364 96.2509L89.1507 95.5715ZM90.4419 94.5789Q90.7291 94.2865 90.9725 93.9576L91.6004 94.4224Q91.3245 94.7951 90.9992 95.1263L90.4419 94.5789ZM91.4139 93.2643Q91.6123 92.898 91.7566 92.5074L92.4894 92.778Q92.3258 93.221 92.1008 93.6364L91.4139 93.2643ZM91.9915 91.6947Q92.0362 91.4841 92.0656 91.2699L92.1314 90.7892L92.9054 90.8952L92.8395 91.376Q92.8063 91.6185 92.7557 91.8569L91.9915 91.6947ZM92.2632 89.8276L92.395 88.8661L93.169 88.9721L93.0372 89.9337L92.2632 89.8276ZM92.5269 87.9045L92.6586 86.943L93.4326 87.049L93.3008 88.0106L92.5269 87.9045ZM92.7905 85.9814L92.8564 85.5006Q92.892 85.2402 92.9481 84.9838L93.7113 85.1506Q93.6618 85.377 93.6303 85.6067L93.5645 86.0875L92.7905 85.9814ZM93.2484 83.9903Q93.4357 83.5098 93.6952 83.0637L94.3705 83.4565Q94.1415 83.8501 93.9762 84.2741L93.2484 83.9903ZM94.278 82.2194Q94.603 81.8186 94.986 81.473L95.5094 82.0529Q95.1715 82.3579 94.8847 82.7115L94.278 82.2194ZM95.8083 80.84Q96.0283 80.6966 96.2591 80.5709L96.6853 80.3388L97.0589 81.0249L96.6328 81.257Q96.429 81.368 96.235 81.4944L95.8083 80.84ZM97.5376 79.8746L98.3899 79.4104L98.7635 80.0965L97.9113 80.5607L97.5376 79.8746ZM99.2422 78.9462L100.095 78.482L100.468 79.1681L99.6159 79.6323L99.2422 78.9462ZM100.947 78.0178L101.373 77.7857Q101.564 77.6815 101.747 77.5639L102.17 78.2207Q101.963 78.3539 101.747 78.4718L101.321 78.7039L100.947 78.0178ZM102.428 77.0514Q102.744 76.7753 103.018 76.4566L103.61 76.9652Q103.301 77.3265 102.942 77.6397L102.428 77.0514ZM103.511 75.7913Q103.732 75.4433 103.903 75.0674L104.615 75.3908Q104.421 75.8167 104.17 76.211L103.511 75.7913ZM104.19 74.2977Q104.307 73.9018 104.368 73.4942L105.141 73.6085Q105.072 74.0705 104.94 74.5189L104.19 74.2977ZM104.431 72.6701Q104.433 72.2626 104.378 71.8588L105.152 71.7542Q105.214 72.2121 105.212 72.6743L104.431 72.6701ZM104.21 71.0486Q104.152 70.8459 104.08 70.6472L103.915 70.1908L104.65 69.9251L104.815 70.3814Q104.896 70.6063 104.961 70.8358L104.21 71.0486ZM103.585 69.2782L103.255 68.3655L103.99 68.0998L104.32 69.0124L103.585 69.2782ZM102.925 67.4529L102.595 66.5402L103.329 66.2744L103.659 67.1871L102.925 67.4529ZM102.265 65.6276L102.099 65.1712Q102.01 64.924 101.94 64.671L102.694 64.464Q102.755 64.6874 102.834 64.9055L102.999 65.3618L102.265 65.6276ZM101.745 63.6518Q101.687 63.1392 101.71 62.6236L102.49 62.6576Q102.47 63.1125 102.521 63.5648L101.745 63.6518ZM101.833 61.6052Q101.935 61.0992 102.113 60.6153L102.846 60.8855Q102.689 61.3126 102.599 61.7589L101.833 61.6052ZM102.547 59.6726Q102.676 59.4433 102.821 59.2249L103.091 58.8213L103.741 59.2551L103.471 59.6587Q103.342 59.8516 103.229 60.0538L102.547 59.6726ZM103.63 58.0142L104.169 57.207L104.819 57.6409L104.28 58.448L103.63 58.0142ZM104.708 56.3999L105.247 55.5928L105.896 56.0266L105.357 56.8337L104.708 56.3999ZM105.786 54.7856L106.055 54.3821Q106.173 54.2062 106.277 54.0233L106.956 54.4097Q106.838 54.6169 106.705 54.8159L106.435 55.2195L105.786 54.7856ZM106.634 53.2769Q106.784 52.8979 106.879 52.5017L107.639 52.6846Q107.531 53.1339 107.361 53.5638L106.634 53.2769ZM107.016 51.6865Q107.055 51.2763 107.036 50.864L107.816 50.8285Q107.838 51.2955 107.793 51.7605L107.016 51.6865ZM106.941 50.0479Q106.865 49.642 106.733 49.2511L107.474 49.0013Q107.623 49.4442 107.709 49.9041L106.941 50.0479ZM106.414 48.4871Q106.224 48.1122 105.984 47.7685L106.624 47.3203Q106.897 47.7101 107.111 48.1352L106.414 48.4871ZM105.445 47.1078Q105.296 46.95 105.135 46.8031L104.777 46.4757L105.304 45.899L105.662 46.2264Q105.844 46.3927 106.013 46.5714L105.445 47.1078ZM104.06 45.8211L103.344 45.1664L103.871 44.5897L104.587 45.2444L104.06 45.8211ZM102.627 44.5117L101.911 43.857L102.438 43.2803L103.154 43.935L102.627 44.5117ZM101.194 43.2023L100.836 42.875Q100.642 42.6977 100.463 42.5058L101.034 41.9725Q101.192 42.1418 101.363 42.2982L101.721 42.6256L101.194 43.2023ZM99.8159 41.6944Q99.5269 41.2672 99.3071 40.8002L100.014 40.4676Q100.208 40.8797 100.463 41.2566L99.8159 41.6944ZM98.9434 39.841Q98.7982 39.3458 98.7313 38.8344L99.5059 38.733Q99.5649 39.1843 99.6931 39.6212L98.9434 39.841ZM98.6775 37.7979Q98.6844 37.5355 98.7121 37.2741L98.7632 36.7916L99.54 36.8738L99.489 37.3564Q99.4645 37.5871 99.4584 37.8186L98.6775 37.7979ZM98.8653 35.8264L98.9675 34.8613L99.7443 34.9435L99.6422 35.9086L98.8653 35.8264ZM99.0696 33.8961L99.1718 32.931L99.9486 33.0132L99.8464 33.9783L99.0696 33.8961ZM99.2739 31.9658L99.325 31.4833Q99.3472 31.2731 99.3544 31.0626L100.135 31.0892Q100.127 31.3275 100.102 31.5655L100.051 32.048L99.2739 31.9658ZM99.3242 30.2355Q99.2805 29.8304 99.1808 29.4352L99.9384 29.2442Q100.051 29.6923 100.101 30.1518L99.3242 30.2355ZM98.9226 28.6502Q98.7665 28.2688 98.5583 27.9125L99.2328 27.5184Q99.4686 27.922 99.6456 28.3542L98.9226 28.6502ZM98.0953 27.2338Q97.8394 26.9097 97.5409 26.6249L98.0802 26.0597Q98.4184 26.3824 98.7084 26.7496L98.0953 27.2338ZM96.9027 26.097Q96.5611 25.853 96.1881 25.6605L96.5463 24.9663Q96.9693 25.1845 97.3568 25.4613L96.9027 26.097ZM95.4041 25.3259Q95.1987 25.2555 94.988 25.2001L94.5187 25.0767L94.7173 24.3212L95.1866 24.4445Q95.425 24.5072 95.6576 24.587L95.4041 25.3259ZM93.58 24.83L92.6414 24.5832L92.84 23.8277L93.7786 24.0744L93.58 24.83ZM91.7027 24.3365L90.764 24.0897L90.9626 23.3342L91.9013 23.5809L91.7027 24.3365ZM89.8254 23.843L89.3561 23.7196Q89.1019 23.6528 88.8541 23.5662L89.1117 22.8287Q89.3304 22.9051 89.5547 22.9641L90.024 23.0874L89.8254 23.843ZM87.9041 23.1485Q87.4495 22.9045 87.038 22.5931L87.5093 21.9702Q87.8725 22.2449 88.2735 22.4601L87.9041 23.1485ZM86.2701 21.9129Q85.9114 21.5419 85.6145 21.1201L86.2532 20.6704Q86.5153 21.0425 86.8318 21.3699L86.2701 21.9129ZM85.0852 20.2274Q84.9694 19.9917 84.8724 19.7475L84.6934 19.2964L85.4195 19.0082L85.5985 19.4593Q85.6841 19.6749 85.7863 19.8827L85.0852 20.2274ZM84.3353 18.3944L83.9772 17.4923L84.7033 17.2041L85.0614 18.1061L84.3353 18.3944ZM83.6191 16.5902L83.261 15.6882L83.9871 15.4L84.3452 16.302L83.6191 16.5902ZM82.903 14.7861L82.7239 14.3351Q82.6436 14.1326 82.5488 13.9373L83.2518 13.5965Q83.3591 13.8177 83.45 14.0469L83.629 14.4979L82.903 14.7861ZM82.1222 13.1992Q81.8862 12.8522 81.6028 12.5424L82.1791 12.0151Q82.5005 12.3663 82.7682 12.7599L82.1222 13.1992ZM81.0018 11.9725Q80.6831 11.7106 80.3305 11.4955L80.7372 10.8286Q81.1367 11.0722 81.4978 11.369L81.0018 11.9725ZM79.601 11.1177Q79.2222 10.954 78.8247 10.845L79.0314 10.0916Q79.4818 10.2152 79.9109 10.4006L79.601 11.1177ZM78.0142 10.6833Q77.6099 10.632 77.2025 10.6375L77.192 9.85632Q77.6541 9.85011 78.1125 9.90826L78.0142 10.6833ZM76.3779 10.7072Q76.1698 10.7397 75.9638 10.7871L75.4909 10.896L75.3156 10.1347L75.7885 10.0258Q76.0217 9.97214 76.2573 9.93532L76.3779 10.7072ZM74.5451 11.1137L73.5993 11.3314L73.4241 10.5701L74.3699 10.3524L74.5451 11.1137ZM72.6535 11.5492L71.7078 11.7669L71.5325 11.0056L72.4783 10.7879L72.6535 11.5492ZM70.762 11.9846L70.2891 12.0935Q70.033 12.1525 69.7733 12.191L69.6586 11.4182Q69.8878 11.3842 70.1138 11.3322L70.5867 11.2233L70.762 11.9846ZM68.7379 12.2626Q68.222 12.2578 67.713 12.1733L67.8408 11.4026Q68.29 11.4772 68.7451 11.4814L68.7379 12.2626ZM66.7169 11.9278Q66.2269 11.766 65.7679 11.5305L66.1245 10.8355Q66.5295 11.0432 66.9619 11.186L66.7169 11.9278ZM64.8844 10.986Q64.6723 10.8312 64.473 10.66L64.1049 10.3438L64.6138 9.75117L64.9819 10.0673Q65.1579 10.2184 65.345 10.3551L64.8844 10.986ZM63.3686 9.7115L62.6323 9.07916L63.1413 8.48653L63.8776 9.11887L63.3686 9.7115ZM61.8961 8.44684L61.1598 7.81453L61.6688 7.22188L62.405 7.8542L61.8961 8.44684ZM60.4235 7.18219L60.0554 6.86603Q59.8938 6.72723 59.7232 6.60083L60.1883 5.97316Q60.3814 6.11624 60.5644 6.27338L60.9325 6.58954L60.4235 7.18219ZM59.0195 6.15323Q58.6582 5.95813 58.273 5.81561L58.5441 5.08295Q58.9809 5.24458 59.3907 5.46582L59.0195 6.15323ZM57.4728 5.58292Q57.0667 5.49564 56.6519 5.46638L56.7068 4.68712Q57.1768 4.72025 57.637 4.81915L57.4728 5.58292ZM55.8242 5.46638Q55.4094 5.49564 55.0033 5.58292L54.8391 4.81915Q55.2993 4.72025 55.7693 4.6871L55.8242 5.46638ZM54.2031 5.8156Q53.8179 5.95813 53.4566 6.15323L53.0854 5.46582Q53.4952 5.24457 53.932 5.08295L54.2031 5.8156ZM52.7529 6.60083Q52.5823 6.72723 52.4207 6.86603L52.0526 7.18219L51.5436 6.58954L51.9117 6.27338Q52.0947 6.11629 52.2878 5.97316L52.7529 6.60083ZM51.3163 7.81451L50.58 8.44684L50.071 7.85419L50.8073 7.22188L51.3163 7.81451ZM49.8438 9.07918L49.1075 9.71149L48.5985 9.11885L49.3348 8.48653L49.8438 9.07918ZM48.3712 10.3438L48.0031 10.66Q47.8037 10.8312 47.5916 10.986L47.131 10.3551Q47.3181 10.2184 47.4941 10.0673L47.8622 9.75117L48.3712 10.3438ZM45.8514 41.3166L45.8514 42.1744L45.0702 42.1744L45.0702 41.3166L45.8514 41.3166ZM45.8514 43.0322L45.8514 43.89L45.0702 43.89L45.0702 43.0322L45.8514 43.0322ZM45.8514 44.7478L45.8514 45.6056L45.0702 45.6056L45.0702 44.7478L45.8514 44.7478ZM45.8514 46.4634L45.8514 47.3212L45.0702 47.3212L45.0702 46.4634L45.8514 46.4634ZM45.8514 48.179L45.8514 48.9985L45.4299 48.9985L45.4299 48.2173L45.4608 48.2173L45.4608 48.6079L45.0702 48.6079L45.0702 48.179L45.8514 48.179ZM45.3681 48.9985L45.1314 48.9985L44.77 48.4714L45.4143 48.0296L45.6594 48.387L45.3372 48.6079L45.3372 48.2173L45.3681 48.2173L45.3681 48.9985ZM44.2798 47.7566L43.7897 47.0417L44.434 46.5999L44.9241 47.3148L44.2798 47.7566ZM43.2995 46.3269L42.8093 45.6121L43.4536 45.1703L43.9438 45.8851L43.2995 46.3269ZM42.3192 44.8972L41.829 44.1824L42.4733 43.7406L42.9635 44.4554L42.3192 44.8972ZM41.3388 43.4675L40.8487 42.7527L41.493 42.3109L41.9832 43.0258L41.3388 43.4675ZM40.3585 42.0379L39.8683 41.323L40.5127 40.8812L41.0028 41.5961L40.3585 42.0379ZM39.3782 40.6082L39.1331 40.2508L39.4553 40.0299L39.4553 40.4205L38.8224 40.4205L38.8224 39.6393L39.661 39.6393L40.0225 40.1664L39.3782 40.6082ZM37.5568 40.4205L36.924 40.4205L36.924 40.0299L37.3146 40.0299L37.3146 40.456L36.5334 40.456L36.5334 39.6393L37.5568 39.6393L37.5568 40.4205ZM37.3146 41.3083L37.3146 42.1605L36.5334 42.1605L36.5334 41.3083L37.3146 41.3083ZM37.3146 43.0128L37.3146 43.865L36.5334 43.865L36.5334 43.0128L37.3146 43.0128ZM37.3146 44.7173L37.3146 45.5695L36.5334 45.5695L36.5334 44.7173L37.3146 44.7173ZM37.3146 46.4218L37.3146 47.274L36.5334 47.274L36.5334 46.4218L37.3146 46.4218ZM37.3146 48.1263L37.3146 48.9785L36.5334 48.9785L36.5334 48.1263L37.3146 48.1263ZM37.3146 49.8308L37.3146 50.6831L36.5334 50.6831L36.5334 49.8308L37.3146 49.8308ZM37.3146 51.5353L37.3146 52.3876L36.5334 52.3876L36.5334 51.5353L37.3146 51.5353ZM37.3146 53.2398L37.3146 53.666L36.924 53.666L36.924 53.2753L37.6449 53.2753L37.6449 54.0566L36.5334 54.0566L36.5334 53.2398L37.3146 53.2398ZM39.0868 53.2753L39.8077 53.2753L39.8077 53.666L39.4171 53.666L39.4171 53.2368L40.1983 53.2368L40.1983 54.0566L39.0868 54.0566L39.0868 53.2753ZM39.4171 52.3786L39.4171 51.5203L40.1983 51.5203L40.1983 52.3786L39.4171 52.3786ZM39.4171 50.662L39.4171 49.8038L40.1983 49.8038L40.1983 50.662L39.4171 50.662ZM39.4171 48.9455L39.4171 48.0872L40.1983 48.0872L40.1983 48.9455L39.4171 48.9455ZM39.4171 47.229L39.4171 46.3707L40.1983 46.3707L40.1983 47.229L39.4171 47.229ZM39.4171 45.5125L39.4171 44.6927L39.8329 44.6927L39.8329 45.4739L39.8077 45.4739L39.8077 45.0833L40.1983 45.0833L40.1983 45.5125L39.4171 45.5125ZM39.8833 44.6927L40.1133 44.6927L40.477 45.2188L39.8343 45.663L39.5871 45.3054L39.9084 45.0833L39.9084 45.4739L39.8833 45.4739L39.8833 44.6927ZM40.9713 45.9341L41.4657 46.6493L40.823 47.0935L40.3287 46.3783L40.9713 45.9341ZM41.96 47.3645L42.4544 48.0797L41.8117 48.5239L41.3174 47.8087L41.96 47.3645ZM42.9487 48.7949L43.4431 49.5102L42.8005 49.9543L42.3061 49.2391L42.9487 48.7949ZM43.9375 50.2254L44.4318 50.9406L43.7892 51.3848L43.2948 50.6696L43.9375 50.2254ZM44.9262 51.6558L45.4205 52.371L44.7779 52.8152L44.2835 52.1L44.9262 51.6558ZM45.9149 53.0862L46.1621 53.4439L45.8408 53.666L45.8408 53.2753L46.4633 53.2753L46.4633 54.0566L45.6359 54.0566L45.2722 53.5304L45.9149 53.0862ZM47.7083 53.2753L48.3308 53.2753L48.3308 53.666L47.9402 53.666L47.9402 53.2398L48.7214 53.2398L48.7214 54.0566L47.7083 54.0566L47.7083 53.2753ZM47.9402 52.3876L47.9402 51.5353L48.7214 51.5353L48.7214 52.3876L47.9402 52.3876ZM47.9402 50.6831L47.9402 49.8308L48.7214 49.8308L48.7214 50.6831L47.9402 50.6831ZM47.9402 48.9785L47.9402 48.1263L48.7214 48.1263L48.7214 48.9785L47.9402 48.9785ZM47.9402 47.274L47.9402 46.4218L48.7214 46.4218L48.7214 47.274L47.9402 47.274ZM47.9402 45.5695L47.9402 44.7173L48.7214 44.7173L48.7214 45.5695L47.9402 45.5695ZM47.9402 43.865L47.9402 43.0128L48.7214 43.0128L48.7214 43.865L47.9402 43.865ZM47.9402 42.1605L47.9402 41.3083L48.7214 41.3083L48.7214 42.1605L47.9402 42.1605ZM47.9402 40.456L47.9402 40.0299L48.3308 40.0299L48.3308 40.4205L47.6133 40.4205L47.6133 39.6393L48.7214 39.6393L48.7214 40.456L47.9402 40.456ZM46.1783 40.4205L45.4608 40.4205L45.4608 40.0299L45.8514 40.0299L45.8514 40.4588L45.0702 40.4588L45.0702 39.6393L46.1783 39.6393L46.1783 40.4205ZM57.9549 50.9957L57.2992 50.9522L57.325 50.5625L57.6913 50.6982Q57.5609 51.0502 57.3283 51.3272L56.73 50.8248Q56.8754 50.6516 56.9588 50.4267L57.0601 50.1534L58.0066 50.2162L57.9549 50.9957ZM56.1183 52.0516Q55.7627 52.1386 55.3613 52.1386Q55.0546 52.1386 54.7715 52.0867L54.9124 51.3183Q55.1256 51.3574 55.3613 51.3574Q55.6685 51.3574 55.9326 51.2928L56.1183 52.0516ZM53.7528 51.6726Q53.3181 51.3707 53.0461 50.902L53.7217 50.5099Q53.9065 50.8282 54.1984 51.0309L53.7528 51.6726ZM52.6942 49.8764Q52.65 49.5926 52.65 49.2854L52.65 49.2831L53.4312 49.2831L53.4312 49.2854Q53.4312 49.5321 53.4661 49.7562L52.6942 49.8764ZM52.65 49.2785L52.65 48.8856L53.476 48.8856L53.476 49.6668L53.0406 49.6668L53.0406 49.2762L53.4312 49.2762L53.4312 49.2785L52.65 49.2785ZM54.3469 48.8856L55.2177 48.8856L55.2177 49.6668L54.3469 49.6668L54.3469 48.8856ZM56.0886 48.8856L56.9594 48.8856L56.9594 49.6668L56.0886 49.6668L56.0886 48.8856ZM57.8303 48.8856L58.7011 48.8856L58.7011 49.6668L57.8303 49.6668L57.8303 48.8856ZM59.572 48.8856L60.0074 48.8856L60.0074 49.2762L59.6168 49.2762L59.6168 49.0817L60.398 49.0817L60.398 49.6668L59.572 49.6668L59.572 48.8856ZM59.6168 48.6926L59.6168 48.4981Q59.6168 48.208 59.5963 47.9321L60.3754 47.8743Q60.398 48.1791 60.398 48.4981L60.398 48.6926L59.6168 48.6926ZM59.4395 46.9152Q59.3267 46.4528 59.1436 46.0488L59.8551 45.7263Q60.0684 46.1967 60.1984 46.7301L59.4395 46.9152ZM58.7258 45.327Q58.4838 44.9941 58.1804 44.725L58.6988 44.1406Q59.0657 44.466 59.3577 44.8678L58.7258 45.327ZM57.4623 44.2249Q57.0744 44.0163 56.6304 43.8891L56.8455 43.1381Q57.3704 43.2885 57.8324 43.5369L57.4623 44.2249ZM55.6988 43.7193Q55.4544 43.6979 55.2011 43.6979Q54.9859 43.6979 54.7771 43.7134L54.7193 42.9343Q54.957 42.9167 55.2011 42.9167Q55.4885 42.9167 55.7669 42.9411L55.6988 43.7193ZM53.9847 43.8339Q53.6105 43.9221 53.2688 44.0664L52.965 43.3467Q53.3672 43.1768 53.8055 43.0735L53.9847 43.8339ZM52.6315 44.4031Q52.3335 44.596 52.0747 44.8379L51.5413 44.2671Q51.8508 43.9779 52.2071 43.7473L52.6315 44.4031ZM51.6115 45.352Q51.4028 45.6273 51.2364 45.941L50.5462 45.575Q50.7422 45.2055 50.989 44.88L51.6115 45.352ZM50.946 46.6092Q50.8219 46.9655 50.7461 47.3527L49.9794 47.2027Q50.0659 46.7609 50.2083 46.3521L50.946 46.6092ZM50.643 48.1669Q50.6298 48.3799 50.6298 48.5988Q50.6298 48.8264 50.6431 49.0463L49.8633 49.0933Q49.8486 48.8499 49.8486 48.5988Q49.8486 48.3557 49.8633 48.1186L50.643 48.1669ZM50.747 49.8821Q50.8234 50.277 50.9489 50.6358L50.2115 50.8938Q50.0673 50.4813 49.98 50.0305L50.747 49.8821ZM51.243 51.3049Q51.4117 51.6169 51.6242 51.8877L51.0096 52.37Q50.756 52.0469 50.5558 51.6763L51.243 51.3049ZM52.0949 52.3889Q52.3558 52.6212 52.6584 52.8055L52.252 53.4727Q51.8891 53.2517 51.5754 52.9724L52.0949 52.3889ZM53.3086 53.1269Q53.6585 53.2643 54.0456 53.348L53.8803 54.1116Q53.4317 54.0145 53.0232 53.8541L53.3086 53.1269ZM54.8682 53.4621Q55.0856 53.4767 55.311 53.4767Q55.5865 53.4767 55.8503 53.4563L55.9106 54.2352Q55.6167 54.258 55.311 54.258Q55.0594 54.258 54.8158 54.2416L54.8682 53.4621ZM56.8304 53.2988Q57.2813 53.1845 57.6721 52.9996L58.0063 53.7057Q57.5469 53.9231 57.0223 54.0561L56.8304 53.2988ZM58.3975 52.5526Q58.7609 52.2654 59.0232 51.9013L59.657 52.358Q59.3309 52.8106 58.882 53.1655L58.3975 52.5526ZM59.4393 51.1062Q59.5169 50.8885 59.5656 50.6563L59.9479 50.7364L59.922 51.1262L59.2663 51.0827L59.318 50.3032L60.4224 50.3764L60.3302 50.8166Q60.2706 51.1008 60.1752 51.3685L59.4393 51.1062ZM56.6627 45.4384Q57.0626 45.7029 57.325 46.1072L56.6697 46.5325Q56.4959 46.2647 56.2317 46.09L56.6627 45.4384ZM57.6805 47.0062Q57.7274 47.254 57.7294 47.5156L57.7323 47.9091L56.8015 47.9091L56.8015 47.1279L57.3388 47.1279L57.3388 47.5185L56.9482 47.5215Q56.9467 47.3301 56.9129 47.1513L57.6805 47.0062ZM55.727 47.9091L54.6524 47.9091L54.6524 47.1279L55.727 47.1279L55.727 47.9091ZM53.5779 47.9091L52.6279 47.9091L52.6506 47.497Q52.6646 47.2418 52.7239 46.997L53.4832 47.1808Q53.4407 47.3561 53.4306 47.54L53.0406 47.5185L53.0406 47.1279L53.5779 47.1279L53.5779 47.9091ZM53.125 46.1058Q53.4065 45.7052 53.8146 45.4416L54.2384 46.0978Q53.9582 46.2788 53.7643 46.5548L53.125 46.1058ZM54.7265 45.0795Q54.9805 45.0314 55.2469 45.0314Q55.5115 45.0314 55.7616 45.0782L55.618 45.8461Q55.4391 45.8127 55.2469 45.8127Q55.0538 45.8127 54.8719 45.8471L54.7265 45.0795ZM66.7463 52.3571L66.9661 51.5532L67.7197 51.7592L67.4999 52.5631L66.7463 52.3571ZM67.1858 50.7493L67.4055 49.9454L68.1591 50.1514L67.9394 50.9553L67.1858 50.7493ZM67.6252 49.1415L67.845 48.3376L68.5985 48.5435L68.3788 49.3475L67.6252 49.1415ZM68.0647 47.5337L68.2532 46.8441L68.5822 46.8441L68.5822 47.6253L68.5513 47.6253L68.5513 47.2347L68.9281 47.3377L68.8182 47.7397L68.0647 47.5337ZM68.644 46.8441L68.9731 46.8441L69.1616 47.5337L68.408 47.7396L68.2982 47.3377L68.6749 47.2347L68.6749 47.6253L68.644 47.6253L68.644 46.8441ZM69.3813 48.3376L69.601 49.1415L68.8474 49.3475L68.6277 48.5435L69.3813 48.3376ZM69.8207 49.9454L70.0404 50.7493L69.2869 50.9553L69.0671 50.1514L69.8207 49.9454ZM70.2601 51.5532L70.4799 52.3571L69.7263 52.5631L69.5065 51.7592L70.2601 51.5532ZM70.6995 53.161L70.8094 53.563L70.4326 53.666L70.4326 53.2753L71.1833 53.2753L71.1833 54.0566L70.1345 54.0566L69.946 53.367L70.6995 53.161ZM72.6847 53.2753L73.4354 53.2753L73.4354 53.666L73.0585 53.5635L73.1743 53.1375L73.9281 53.3423L73.7341 54.0566L72.6847 54.0566L72.6847 53.2753ZM73.4058 52.2853L73.6373 51.4331L74.3912 51.638L74.1597 52.4901L73.4058 52.2853ZM73.8689 50.581L74.1004 49.7288L74.8542 49.9337L74.6227 50.7858L73.8689 50.581ZM74.3319 48.8766L74.5635 48.0245L75.3174 48.2293L75.0858 49.0815L74.3319 48.8766ZM74.795 47.1723L75.0266 46.3202L75.7804 46.525L75.5489 47.3772L74.795 47.1723ZM75.2581 45.468L75.4896 44.6159L76.2435 44.8207L76.012 45.6729L75.2581 45.468ZM75.7212 43.7637L75.8369 43.3376L76.2139 43.44L76.2139 43.8306L75.4975 43.8306L75.4975 43.0494L76.7247 43.0494L76.475 43.9685L75.7212 43.7637ZM74.0648 43.8306L73.3484 43.8306L73.3484 43.44L73.7293 43.5268L73.632 43.9537L72.8704 43.7801L73.0369 43.0494L74.0648 43.0494L74.0648 43.8306ZM73.4375 44.8073L73.2429 45.661L72.4813 45.4875L72.6758 44.6338L73.4375 44.8073ZM73.0484 46.5147L72.8539 47.3684L72.0922 47.1948L72.2867 46.3411L73.0484 46.5147ZM72.6593 48.2221L72.4648 49.0758L71.7031 48.9022L71.8976 48.0485L72.6593 48.2221ZM72.2703 49.9295L72.1037 50.6601L71.7704 50.6601L71.7704 49.8789L71.7921 49.8789L71.7921 50.2695L71.4113 50.1827L71.5085 49.7559L72.2703 49.9295ZM71.7269 50.6601L71.399 50.6601L71.2208 49.936L71.9794 49.7494L72.0844 50.1762L71.7051 50.2695L71.7051 49.8789L71.7269 49.8789L71.7269 50.6601ZM71.0109 49.0823L70.8009 48.2286L71.5594 48.042L71.7695 48.8957L71.0109 49.0823ZM70.5909 47.3749L70.3809 46.5212L71.1395 46.3346L71.3495 47.1883L70.5909 47.3749ZM70.171 45.6675L69.9609 44.8139L70.7195 44.6273L70.9295 45.481L70.171 45.6675ZM69.751 43.9602L69.646 43.5333L70.0253 43.44L70.0253 43.8306L69.3215 43.8306L69.3215 43.0494L70.3314 43.0494L70.5096 43.7736L69.751 43.9602ZM67.9139 43.8306L67.2101 43.8306L67.2101 43.44L67.5899 43.5314L67.4866 43.9608L66.7271 43.7781L66.9023 43.0494L67.9139 43.0494L67.9139 43.8306ZM67.2801 44.8196L67.0735 45.6785L66.314 45.4958L66.5205 44.6369L67.2801 44.8196ZM66.8669 46.5373L66.6604 47.3961L65.9009 47.2135L66.1074 46.3546L66.8669 46.5373ZM66.4539 48.255L66.2473 49.1138L65.4877 48.9311L65.6943 48.0723L66.4539 48.255ZM66.0407 49.9726L65.8655 50.7013L65.5348 50.7013L65.5348 49.9201L65.5577 49.9201L65.5577 50.3107L65.1779 50.2194L65.2812 49.79L66.0407 49.9726ZM65.489 50.7013L65.1553 50.7013L64.9865 49.969L65.7477 49.7936L65.8467 50.223L65.4661 50.3107L65.4661 49.9201L65.489 49.9201L65.489 50.7013ZM64.7886 49.1102L64.5906 48.2514L65.3518 48.0759L65.5498 48.9347L64.7886 49.1102ZM64.3926 47.3925L64.1946 46.5337L64.9559 46.3582L65.1539 47.2171L64.3926 47.3925ZM63.9967 45.6749L63.7987 44.816L64.5599 44.6405L64.7579 45.4994L63.9967 45.6749ZM63.6008 43.9572L63.5018 43.5278L63.8824 43.44L63.8824 43.8306L63.1649 43.8306L63.1649 43.0494L64.1932 43.0494L64.362 43.7817L63.6008 43.9572ZM61.7299 43.8306L61.0123 43.8306L61.0123 43.44L61.3892 43.3375L61.5052 43.7635L60.7514 43.9687L60.5012 43.0494L61.7299 43.0494L61.7299 43.8306ZM61.7371 44.6157L61.9691 45.4679L61.2152 45.673L60.9833 44.8209L61.7371 44.6157ZM62.2009 46.32L62.4329 47.1722L61.6791 47.3773L61.4471 46.5252L62.2009 46.32ZM62.6648 48.0243L62.8967 48.8765L62.1429 49.0816L61.911 48.2295L62.6648 48.0243ZM63.1287 49.7287L63.3606 50.5808L62.6068 50.786L62.3749 49.9338L63.1287 49.7287ZM63.5925 51.433L63.8244 52.2851L63.0706 52.4903L62.8387 51.6381L63.5925 51.433ZM64.0563 53.1373L64.1723 53.5634L63.7954 53.666L63.7954 53.2753L64.5449 53.2753L64.5449 54.0566L63.4969 54.0566L63.3026 53.3425L64.0563 53.1373ZM66.0441 53.2753L66.7936 53.2753L66.7936 53.666L66.4168 53.563L66.5267 53.161L67.2802 53.367L67.0917 54.0566L66.0441 54.0566L66.0441 53.2753ZM34.1494 72.8842L34.1494 72.2903L34.54 72.2903L34.54 72.6809L34.1443 72.6809L34.1443 71.8997L34.9306 71.8997L34.9306 72.8842L34.1494 72.8842ZM33.353 72.6809L32.5617 72.6809L32.5617 71.8997L33.353 71.8997L33.353 72.6809ZM31.7704 72.6809L30.9791 72.6809L30.9791 71.8997L31.7704 71.8997L31.7704 72.6809ZM30.1877 72.6809L29.3964 72.6809L29.3964 71.8997L30.1877 71.8997L30.1877 72.6809ZM28.6051 72.6809L27.8188 72.6809L27.8188 71.8829L28.6 71.8829L28.6 72.2903L28.2094 72.2903L28.2094 71.8997L28.6051 71.8997L28.6051 72.6809ZM27.8188 71.0681L27.8188 70.2533L28.6 70.2533L28.6 71.0681L27.8188 71.0681ZM27.8188 69.4386L27.8188 68.6406L28.6954 68.6406L28.6954 69.4218L28.2094 69.4218L28.2094 69.0312L28.6 69.0312L28.6 69.4386L27.8188 69.4386ZM29.6674 68.6406L30.6393 68.6406L30.6393 69.4218L29.6674 69.4218L29.6674 68.6406ZM31.6112 68.6406L32.5831 68.6406L32.5831 69.4218L31.6112 69.4218L31.6112 68.6406ZM33.5551 68.6406L34.041 68.6406L34.041 69.0312L33.6505 69.0312L33.6505 68.4372L34.4316 68.4372L34.4316 69.4218L33.5551 69.4218L33.5551 68.6406ZM33.6505 67.2494L33.6505 66.6555L34.041 66.6555L34.041 67.0461L33.5551 67.0461L33.5551 66.2649L34.4316 66.2649L34.4316 67.2494L33.6505 67.2494ZM32.5831 67.0461L31.6112 67.0461L31.6112 66.2649L32.5831 66.2649L32.5831 67.0461ZM30.6393 67.0461L29.6674 67.0461L29.6674 66.2649L30.6393 66.2649L30.6393 67.0461ZM28.6954 67.0461L27.8188 67.0461L27.8188 66.2492L28.6 66.2492L28.6 66.6555L28.2094 66.6555L28.2094 66.2649L28.6954 66.2649L28.6954 67.0461ZM27.8188 65.4368L27.8188 64.6243L28.6 64.6243L28.6 65.4368L27.8188 65.4368ZM27.8188 63.8118L27.8188 63.015L28.6034 63.015L28.6034 63.7961L28.2094 63.7961L28.2094 63.4055L28.6 63.4055L28.6 63.8118L27.8188 63.8118ZM29.3913 63.015L30.1791 63.015L30.1791 63.7961L29.3913 63.7961L29.3913 63.015ZM30.967 63.015L31.7549 63.015L31.7549 63.7961L30.967 63.7961L30.967 63.015ZM32.5428 63.015L33.3307 63.015L33.3307 63.7961L32.5428 63.7961L32.5428 63.015ZM34.1186 63.015L34.5125 63.015L34.5125 63.4055L34.1219 63.4055L34.1219 62.8116L34.9031 62.8116L34.9031 63.7961L34.1186 63.7961L34.1186 63.015ZM34.1219 61.6238L34.1219 61.0299L34.5125 61.0299L34.5125 61.4205L34.0532 61.4205L34.0532 60.6393L34.9031 60.6393L34.9031 61.6238L34.1219 61.6238ZM33.1345 61.4205L32.2158 61.4205L32.2158 60.6393L33.1345 60.6393L33.1345 61.4205ZM31.2971 61.4205L30.3784 61.4205L30.3784 60.6393L31.2971 60.6393L31.2971 61.4205ZM29.4597 61.4205L28.5411 61.4205L28.5411 60.6393L29.4597 60.6393L29.4597 61.4205ZM27.6224 61.4205L26.7037 61.4205L26.7037 60.6393L27.6224 60.6393L27.6224 61.4205ZM25.785 61.4205L25.3257 61.4205L25.3257 61.0299L25.7163 61.0299L25.7163 61.456L24.9351 61.456L24.9351 60.6393L25.785 60.6393L25.785 61.4205ZM25.7163 62.3083L25.7163 63.1605L24.9351 63.1605L24.9351 62.3083L25.7163 62.3083ZM25.7163 64.0128L25.7163 64.865L24.9351 64.865L24.9351 64.0128L25.7163 64.0128ZM25.7163 65.7173L25.7163 66.5695L24.9351 66.5695L24.9351 65.7173L25.7163 65.7173ZM25.7163 67.4218L25.7163 68.274L24.9351 68.274L24.9351 67.4218L25.7163 67.4218ZM25.7163 69.1263L25.7163 69.9785L24.9351 69.9785L24.9351 69.1263L25.7163 69.1263ZM25.7163 70.8308L25.7163 71.6831L24.9351 71.6831L24.9351 70.8308L25.7163 70.8308ZM25.7163 72.5353L25.7163 73.3876L24.9351 73.3876L24.9351 72.5353L25.7163 72.5353ZM25.7163 74.2398L25.7163 74.666L25.3257 74.666L25.3257 74.2754L25.7864 74.2754L25.7864 75.0565L24.9351 75.0565L24.9351 74.2398L25.7163 74.2398ZM26.7078 74.2754L27.6293 74.2754L27.6293 75.0565L26.7078 75.0565L26.7078 74.2754ZM28.5507 74.2754L29.4721 74.2754L29.4721 75.0565L28.5507 75.0565L28.5507 74.2754ZM30.3936 74.2754L31.315 74.2754L31.315 75.0565L30.3936 75.0565L30.3936 74.2754ZM32.2364 74.2754L33.1578 74.2754L33.1578 75.0565L32.2364 75.0565L32.2364 74.2754ZM34.0793 74.2754L34.54 74.2754L34.54 74.666L34.1494 74.666L34.1494 74.0721L34.9306 74.0721L34.9306 75.0565L34.0793 75.0565L34.0793 74.2754ZM43.519 72.6367L43.9393 72.6367L43.9393 73.4369L43.1581 73.4369L43.1581 73.0273L43.5487 73.0273L43.5487 73.4178L43.519 73.4178L43.519 72.6367ZM43.9393 74.2563L43.9393 74.666L43.5487 74.666L43.5487 74.2754L44.2479 74.2754L44.2479 75.0565L43.1581 75.0565L43.1581 74.2563L43.9393 74.2563ZM45.6463 74.2754L46.3455 74.2754L46.3455 74.666L45.9549 74.666L45.9549 74.2398L46.7361 74.2398L46.7361 75.0565L45.6463 75.0565L45.6463 74.2754ZM45.9549 73.3876L45.9549 72.5353L46.7361 72.5353L46.7361 73.3876L45.9549 73.3876ZM45.9549 71.6831L45.9549 70.8308L46.7361 70.8308L46.7361 71.6831L45.9549 71.6831ZM45.9549 69.9785L45.9549 69.1263L46.7361 69.1263L46.7361 69.9785L45.9549 69.9785ZM45.9549 68.274L45.9549 67.4218L46.7361 67.4218L46.7361 68.274L45.9549 68.274ZM45.9549 66.5695L45.9549 65.7173L46.7361 65.7173L46.7361 66.5695L45.9549 66.5695ZM45.9549 64.865L45.9549 64.0128L46.7361 64.0128L46.7361 64.865L45.9549 64.865ZM45.9549 63.1605L45.9549 62.3083L46.7361 62.3083L46.7361 63.1605L45.9549 63.1605ZM45.9549 61.456L45.9549 61.0299L46.3455 61.0299L46.3455 61.4205L45.6383 61.4205L45.6383 60.6393L46.7361 60.6393L46.7361 61.456L45.9549 61.456ZM44.2239 61.4205L43.5167 61.4205L43.5167 61.0299L43.9073 61.0299L43.9073 61.4571L43.1261 61.4571L43.1261 60.6393L44.2239 60.6393L44.2239 61.4205ZM43.9073 62.3116L43.9073 63.166L43.1261 63.166L43.1261 62.3116L43.9073 62.3116ZM43.9073 64.0204L43.9073 64.8749L43.1261 64.8749L43.1261 64.0204L43.9073 64.0204ZM43.9073 65.7293L43.9073 66.5471L43.4949 66.5471L43.4949 65.766L43.5167 65.766L43.5167 66.1566L43.1261 66.1566L43.1261 65.7293L43.9073 65.7293ZM43.4515 66.5471L43.1786 66.5471L43.0743 66.3186Q42.9955 66.1459 42.9013 65.9887L43.5713 65.5869Q43.6881 65.7818 43.7851 65.9945L43.4297 66.1566L43.4297 65.766L43.4515 65.766L43.4515 66.5471ZM42.3894 65.3577Q42.1132 65.1073 41.7763 64.9518L42.1038 64.2425Q42.5493 64.4482 42.9141 64.7789L42.3894 65.3577ZM40.9992 64.7296Q40.7686 64.6979 40.5185 64.6979Q40.2993 64.6979 40.0863 64.7223L39.9974 63.9461Q40.2546 63.9167 40.5185 63.9167Q40.8221 63.9167 41.1058 63.9557L40.9992 64.7296ZM39.2701 64.9158Q38.8766 65.062 38.5336 65.3014L38.0865 64.6609Q38.5111 64.3644 38.9981 64.1835L39.2701 64.9158ZM37.8957 65.8811Q37.6656 66.1491 37.4802 66.4704L36.8036 66.0797Q37.0255 65.6956 37.3028 65.3723L37.8957 65.8811ZM37.1465 67.1879Q36.9996 67.5874 36.9091 68.0379L36.1432 67.884Q36.2456 67.3744 36.4134 66.9182L37.1465 67.1879ZM36.783 69.0231Q36.7665 69.2889 36.7665 69.5667Q36.7665 69.8403 36.7827 70.1025L36.003 70.1505Q35.9854 69.8642 35.9854 69.5667Q35.9854 69.2647 36.0033 68.9748L36.783 69.0231ZM36.9068 71.0797Q36.9965 71.5298 37.1422 71.9298L36.4081 72.1971Q36.242 71.7409 36.1407 71.2323L36.9068 71.0797ZM37.475 72.6527Q37.6631 72.9817 37.8969 73.2551L37.3033 73.7629Q37.0215 73.4334 36.7968 73.0405L37.475 72.6527ZM38.5286 73.8321Q38.8698 74.072 39.2619 74.2188L38.9879 74.9503Q38.5023 74.7685 38.0793 74.4712L38.5286 73.8321ZM40.0855 74.4152Q40.3028 74.4402 40.5276 74.4402Q40.7708 74.4402 40.9967 74.4097L41.101 75.184Q40.8232 75.2213 40.5276 75.2213Q40.258 75.2213 39.9962 75.1913L40.0855 74.4152ZM41.7668 74.1952Q42.1063 74.0432 42.3858 73.7989L42.9 74.387Q42.5324 74.7084 42.086 74.9082L41.7668 74.1952ZM42.9001 73.1885Q42.9969 73.0326 43.0752 72.8633L43.18 72.6367L43.4595 72.6367L43.4595 73.4178L43.4297 73.4178L43.4297 73.0273L43.7842 73.1912Q43.6859 73.404 43.5637 73.6007L42.9001 73.1885ZM39.1624 67.8289Q39.3719 67.2722 39.7258 66.8906L40.2986 67.4217Q40.049 67.6909 39.8935 68.1041L39.1624 67.8289ZM40.7737 66.2561Q41.0822 66.1734 41.4248 66.1734Q41.765 66.1734 42.0718 66.2545L41.872 67.0097Q41.6635 66.9546 41.4248 66.9546Q41.1852 66.9546 40.9761 67.0107L40.7737 66.2561ZM43.1234 66.8857Q43.4763 67.264 43.6853 67.8159L42.9548 68.0926Q42.8002 67.6844 42.5521 67.4185L43.1234 66.8857ZM43.9358 68.9246Q43.9668 69.2267 43.9668 69.553Q43.9668 69.8779 43.9354 70.1806L43.1584 70.1001Q43.1856 69.8376 43.1856 69.553Q43.1856 69.2666 43.1587 69.0042L43.9358 68.9246ZM43.6835 71.2931Q43.4741 71.8486 43.123 72.2326L42.5464 71.7056Q42.7961 71.4324 42.9525 71.0175L43.6835 71.2931ZM42.0722 72.8803Q41.7645 72.9647 41.4248 72.9647Q41.0823 72.9647 40.7729 72.8795L40.9802 72.1263Q41.1879 72.1835 41.4248 72.1835Q41.6592 72.1835 41.8657 72.1269L42.0722 72.8803ZM39.7237 72.2309Q39.3721 71.8447 39.163 71.2851L39.8948 71.0117Q40.0512 71.4302 40.3013 71.7049L39.7237 72.2309ZM38.9136 70.1744Q38.8828 69.8743 38.8828 69.553Q38.8828 69.2325 38.9134 68.9341L39.6906 69.0138Q39.664 69.2725 39.664 69.553Q39.664 69.8344 39.6908 70.0946L38.9136 70.1744ZM51.1145 73.3877L51.1145 72.5356L51.8957 72.5356L51.8957 73.3877L51.1145 73.3877ZM51.1145 71.6834L51.1145 70.8312L51.8957 70.8312L51.8957 71.6834L51.1145 71.6834ZM51.1145 69.9791L51.1145 69.1269L51.8957 69.1269L51.8957 69.9791L51.1145 69.9791ZM51.1145 68.2747L51.1145 67.4226L51.8957 67.4226L51.8957 68.2747L51.1145 68.2747ZM51.1145 66.5704L51.1145 65.7183L51.8957 65.7183L51.8957 66.5704L51.1145 66.5704ZM51.1145 64.8661L51.1145 64.44L51.5051 64.44L51.5051 64.8306L50.7956 64.8306L50.7956 64.0494L51.8957 64.0494L51.8957 64.8661L51.1145 64.8661ZM49.3766 64.8306L48.6671 64.8306L48.6671 64.44L49.0577 64.44L49.0577 64.8661L48.2765 64.8661L48.2765 64.0494L49.3766 64.0494L49.3766 64.8306ZM49.0577 65.7183L49.0577 66.5704L48.2765 66.5704L48.2765 65.7183L49.0577 65.7183ZM49.0577 67.4226L49.0577 68.2747L48.2765 68.2747L48.2765 67.4226L49.0577 67.4226ZM49.0577 69.1269L49.0577 69.9791L48.2765 69.9791L48.2765 69.1269L49.0577 69.1269ZM49.0577 70.8312L49.0577 71.6834L48.2765 71.6834L48.2765 70.8312L49.0577 70.8312ZM49.0577 72.5356L49.0577 73.3877L48.2765 73.3877L48.2765 72.5356L49.0577 72.5356ZM49.0577 74.2399L49.0577 74.666L48.6671 74.666L48.6671 74.2754L49.3766 74.2754L49.3766 75.0565L48.2765 75.0565L48.2765 74.2399L49.0577 74.2399ZM50.7956 74.2754L51.5051 74.2754L51.5051 74.666L51.1145 74.666L51.1145 74.2399L51.8957 74.2399L51.8957 75.0565L50.7956 75.0565L50.7956 74.2754ZM50.537 60.7241Q50.3253 60.6423 50.0952 60.6423Q49.8653 60.6423 49.6542 60.7241L49.3721 59.9956Q49.7193 59.8611 50.0952 59.8611Q50.4709 59.8611 50.8185 59.9954L50.537 60.7241ZM49.0426 61.2813Q48.9524 61.4743 48.9524 61.6844Q48.9524 61.8963 49.0425 62.0901L48.3341 62.4195Q48.1712 62.069 48.1712 61.6844Q48.1712 61.3007 48.3349 60.9505L49.0426 61.2813ZM49.6537 62.6491Q49.8649 62.7311 50.0952 62.7311Q50.3257 62.7311 50.5375 62.6491L50.8196 63.3776Q50.4716 63.5123 50.0952 63.5123Q49.7185 63.5123 49.3709 63.3773L49.6537 62.6491ZM51.152 62.0896Q51.2426 61.8958 51.2426 61.6844Q51.2426 61.4747 51.152 61.2819L51.8589 60.9495Q52.0238 61.3002 52.0238 61.6844Q52.0238 62.0695 51.8596 62.4206L51.152 62.0896ZM56.892 62.6034L56.892 61.9911L57.2826 61.9911L57.2826 62.3817L56.5742 62.3817L56.5742 61.6005L57.6732 61.6005L57.6732 62.6034L56.892 62.6034ZM55.1575 62.3817L54.4492 62.3817L54.4492 61.9911L54.8398 61.9911L54.8398 62.6034L54.0586 62.6034L54.0586 61.6005L55.1575 61.6005L55.1575 62.3817ZM54.8398 63.8278L54.8398 64.8306L54.099 64.8306L54.099 64.0494L54.4492 64.0494L54.4492 64.44L54.0586 64.44L54.0586 63.8278L54.8398 63.8278ZM53.3987 64.8306L53.0485 64.8306L53.0485 64.44L53.4391 64.44L53.4391 64.9722L52.6579 64.9722L52.6579 64.0494L53.3987 64.0494L53.3987 64.8306ZM53.4391 66.0364L53.4391 66.5685L53.0485 66.5685L53.0485 66.1779L53.3987 66.1779L53.3987 66.9591L52.6579 66.9591L52.6579 66.0364L53.4391 66.0364ZM54.099 66.1779L54.8398 66.1779L54.8398 67.0125L54.0586 67.0125L54.0586 66.5685L54.4492 66.5685L54.4492 66.9591L54.099 66.9591L54.099 66.1779ZM54.8398 67.9006L54.8398 68.7886L54.0586 68.7886L54.0586 67.9006L54.8398 67.9006ZM54.8398 69.6766L54.8398 70.5646L54.0586 70.5646L54.0586 69.6766L54.8398 69.6766ZM54.8398 71.4526L54.8398 71.8966Q54.8382 72.1313 54.8635 72.3443L54.0878 72.4366Q54.0567 72.1749 54.0586 71.8966L54.0586 71.4526L54.8398 71.4526ZM55.0585 73.0851Q55.198 73.4021 55.4248 73.6464L54.8524 74.178Q54.5359 73.8372 54.3434 73.3997L55.0585 73.0851ZM55.9351 74.0442Q56.226 74.2074 56.5872 74.301L56.3913 75.0572Q55.9322 74.9383 55.5529 74.7256L55.9351 74.0442ZM57.3877 74.4167Q57.6066 74.4269 57.8391 74.4176Q58.083 74.4084 58.3168 74.3799L58.4115 75.1553Q58.1452 75.1878 57.8704 75.1982Q57.6039 75.2088 57.3513 75.197L57.3877 74.4167ZM59.0318 74.2401Q59.1514 74.2071 59.2675 74.1678L59.3928 74.5378L59.0105 74.6182L58.8995 74.0907L59.664 73.9298L59.8464 74.7965L59.5181 74.9077Q59.3807 74.9543 59.2396 74.9932L59.0318 74.2401ZM58.6776 73.0356L58.5665 72.508L58.9488 72.4276L59.0256 72.8106L58.8929 72.8372L58.7393 72.0712L59.2513 71.9686L59.442 72.8747L58.6776 73.0356ZM58.4856 72.9012Q58.3563 72.9143 58.2438 72.9143Q57.9659 72.9143 57.7495 72.8542L57.9589 72.1015Q58.0726 72.1331 58.2438 72.1331Q58.3166 72.1331 58.4065 72.124L58.4856 72.9012ZM56.9843 72.139Q56.892 71.8752 56.892 71.5213L56.892 71.1086L57.6732 71.1086L57.6732 71.5213Q57.6732 71.7425 57.7217 71.8811L56.9843 72.139ZM56.892 70.2831L56.892 69.4576L57.6732 69.4576L57.6732 70.2831L56.892 70.2831ZM56.892 68.6322L56.892 67.8067L57.6732 67.8067L57.6732 68.6322L56.892 68.6322ZM56.892 66.9813L56.892 66.1779L57.7643 66.1779L57.7643 66.9591L57.2826 66.9591L57.2826 66.5685L57.6732 66.5685L57.6732 66.9813L56.892 66.9813ZM58.7279 66.1779L59.2097 66.1779L59.2097 66.5685L58.819 66.5685L58.819 66.0364L59.6003 66.0364L59.6003 66.9591L58.7279 66.9591L58.7279 66.1779ZM58.819 64.9722L58.819 64.44L59.2097 64.44L59.2097 64.8306L58.7279 64.8306L58.7279 64.0494L59.6003 64.0494L59.6003 64.9722L58.819 64.9722ZM57.7643 64.8306L56.892 64.8306L56.892 63.8278L57.6732 63.8278L57.6732 64.44L57.2826 64.44L57.2826 64.0494L57.7643 64.0494L57.7643 64.8306ZM63.4984 73.3877L63.4984 72.5356L64.2797 72.5356L64.2797 73.3877L63.4984 73.3877ZM63.4984 71.6834L63.4984 70.8312L64.2797 70.8312L64.2797 71.6834L63.4984 71.6834ZM63.4984 69.9791L63.4984 69.1269L64.2797 69.1269L64.2797 69.9791L63.4984 69.9791ZM63.4984 68.2747L63.4984 67.4226L64.2797 67.4226L64.2797 68.2747L63.4984 68.2747ZM63.4984 66.5704L63.4984 65.7183L64.2797 65.7183L64.2797 66.5704L63.4984 66.5704ZM63.4984 64.8661L63.4984 64.44L63.889 64.44L63.889 64.8306L63.1796 64.8306L63.1796 64.0494L64.2797 64.0494L64.2797 64.8661L63.4984 64.8661ZM61.7605 64.8306L61.051 64.8306L61.051 64.44L61.4417 64.44L61.4417 64.8661L60.6604 64.8661L60.6604 64.0494L61.7605 64.0494L61.7605 64.8306ZM61.4417 65.7183L61.4417 66.5704L60.6604 66.5704L60.6604 65.7183L61.4417 65.7183ZM61.4417 67.4226L61.4417 68.2747L60.6604 68.2747L60.6604 67.4226L61.4417 67.4226ZM61.4417 69.1269L61.4417 69.9791L60.6604 69.9791L60.6604 69.1269L61.4417 69.1269ZM61.4417 70.8312L61.4417 71.6834L60.6604 71.6834L60.6604 70.8312L61.4417 70.8312ZM61.4417 72.5356L61.4417 73.3877L60.6604 73.3877L60.6604 72.5356L61.4417 72.5356ZM61.4417 74.2399L61.4417 74.666L61.051 74.666L61.051 74.2754L61.7605 74.2754L61.7605 75.0565L60.6604 75.0565L60.6604 74.2399L61.4417 74.2399ZM63.1796 74.2754L63.889 74.2754L63.889 74.666L63.4984 74.666L63.4984 74.2399L64.2797 74.2399L64.2797 75.0565L63.1796 75.0565L63.1796 74.2754ZM62.921 60.7241Q62.7092 60.6423 62.4792 60.6423Q62.2492 60.6423 62.0381 60.7241L61.756 59.9956Q62.1032 59.8611 62.4792 59.8611Q62.8549 59.8611 63.2025 59.9954L62.921 60.7241ZM61.4265 61.2813Q61.3364 61.4743 61.3364 61.6844Q61.3364 61.8963 61.4265 62.0901L60.7181 62.4195Q60.5551 62.069 60.5551 61.6844Q60.5551 61.3007 60.7188 60.9505L61.4265 61.2813ZM62.0377 62.6491Q62.2488 62.7311 62.4792 62.7311Q62.7096 62.7311 62.9215 62.6491L63.2036 63.3776Q62.8556 63.5123 62.4792 63.5123Q62.1025 63.5123 61.7549 63.3773L62.0377 62.6491ZM63.536 62.0896Q63.6266 61.8958 63.6266 61.6844Q63.6266 61.4747 63.5359 61.2819L64.2429 60.9494Q64.4078 61.3002 64.4078 61.6844Q64.4078 62.0695 64.2436 62.4206L63.536 62.0896ZM75.2972 68.3336Q75.2209 67.9426 75.0956 67.5847L75.833 67.3267Q75.9768 67.7377 76.064 68.1838L75.2972 68.3336ZM74.802 66.9142Q74.6335 66.5999 74.4216 66.3255L75.04 65.8481Q75.2914 66.1738 75.4905 66.5451L74.802 66.9142ZM73.9525 65.8156Q73.6922 65.5782 73.3918 65.3893L73.8077 64.728Q74.1672 64.9541 74.4789 65.2385L73.9525 65.8156ZM72.7473 65.0592Q72.4006 64.9176 72.0193 64.8312L72.1921 64.0693Q72.6362 64.17 73.0425 64.3359L72.7473 65.0592ZM71.2094 64.7131Q70.9954 64.6979 70.7743 64.6979Q70.5532 64.6979 70.3392 64.7131L70.2839 63.9338Q70.5255 63.9167 70.7743 63.9167Q71.0231 63.9167 71.2646 63.9338L71.2094 64.7131ZM69.5291 64.8311Q69.1476 64.9176 68.8008 65.0591L68.5057 64.3357Q68.9122 64.1699 69.3564 64.0692L69.5291 64.8311ZM68.1556 65.3892Q67.8549 65.5781 67.5943 65.8154L67.0683 65.2379Q67.3804 64.9536 67.7401 64.7277L68.1556 65.3892ZM67.1244 66.3253Q66.9121 66.5998 66.7433 66.9141L66.0551 66.5445Q66.2545 66.173 66.5064 65.8474L67.1244 66.3253ZM66.449 67.5846Q66.3235 67.9425 66.2469 68.3335L65.4803 68.1834Q65.5676 67.7372 65.7119 67.3261L66.449 67.5846ZM66.143 69.1565Q66.1298 69.3722 66.1298 69.5942Q66.1298 69.8148 66.1431 70.0294L65.3633 70.0778Q65.3485 69.8391 65.3485 69.5942Q65.3485 69.348 65.3633 69.1085L66.143 69.1565ZM66.2473 70.8485Q66.3241 71.2379 66.4501 71.5949L65.7133 71.8548Q65.5686 71.4446 65.4809 70.9996L66.2473 70.8485ZM66.7452 72.2641Q66.9147 72.578 67.1278 72.8523L66.5107 73.3315Q66.2581 73.0061 66.0578 72.6352L66.7452 72.2641ZM67.5988 73.3615Q67.8593 73.598 68.1598 73.7865L67.7448 74.4483Q67.3856 74.223 67.0736 73.9398L67.5988 73.3615ZM68.8043 74.1159Q69.1509 74.2572 69.5315 74.3436L69.3587 75.1054Q68.9153 75.0049 68.5093 74.8393L68.8043 74.1159ZM70.3401 74.4616Q70.5536 74.4768 70.7743 74.4768Q70.9951 74.4768 71.2084 74.4616L71.2639 75.2408Q71.0228 75.258 70.7743 75.258Q70.5259 75.258 70.2848 75.2408L70.3401 74.4616ZM72.0169 74.3435Q72.3975 74.2572 72.7437 74.1158L73.0389 74.8391Q72.6331 75.0048 72.1898 75.1054L72.0169 74.3435ZM73.3877 73.7863Q73.6878 73.5979 73.9481 73.3612L74.4736 73.9392Q74.162 74.2226 73.8031 74.4479L73.3877 73.7863ZM74.4183 72.8521Q74.6309 72.5779 74.8 72.2639L75.4878 72.6345Q75.288 73.0053 75.0356 73.3308L74.4183 72.8521ZM75.0946 71.5948Q75.2203 71.2379 75.2969 70.8485L76.0634 70.9992Q75.976 71.444 75.8315 71.8542L75.0946 71.5948ZM75.4009 70.0294Q75.4142 69.8149 75.4142 69.5942Q75.4142 69.3722 75.4009 69.1565L76.1807 69.1086Q76.1954 69.3481 76.1954 69.5942Q76.1954 69.8391 76.1807 70.0777L75.4009 70.0294ZM68.5061 67.8191Q68.7129 67.2434 69.062 66.8449L69.6495 67.3598Q69.398 67.6468 69.2413 68.0831L68.5061 67.8191ZM70.1205 66.1674Q70.4366 66.0772 70.788 66.0772Q71.1368 66.0772 71.4511 66.169L71.2322 66.9189Q71.0251 66.8584 70.788 66.8584Q70.5458 66.8584 70.3347 66.9186L70.1205 66.1674ZM72.501 66.8555Q72.8433 67.2543 73.0465 67.8275L72.3102 68.0885Q72.1556 67.6526 71.9082 67.3643L72.501 66.8555ZM73.2867 68.9504Q73.3163 69.2512 73.3163 69.5713Q73.3163 69.8915 73.2867 70.1922L72.5093 70.1159Q72.535 69.8532 72.535 69.5713Q72.535 69.2895 72.5093 69.0267L73.2867 68.9504ZM73.0463 71.3144Q72.8431 71.8869 72.5004 72.285L71.9083 71.7754Q72.1558 71.4879 72.3102 71.0529L73.0463 71.3144ZM71.4507 72.9694Q71.1367 73.0608 70.788 73.0608Q70.4368 73.0608 70.1209 72.971L70.3344 72.2196Q70.5457 72.2796 70.788 72.2796Q71.0253 72.2796 71.2324 72.2193L71.4507 72.9694ZM69.0626 72.2955Q68.7131 71.8978 68.5062 71.3228L69.2413 71.0583Q69.3979 71.4937 69.6494 71.7798L69.0626 72.2955ZM68.2621 70.1953Q68.2322 69.8935 68.2322 69.5713Q68.2322 69.2493 68.2621 68.9473L69.0396 69.0241Q69.0135 69.2879 69.0135 69.5713Q69.0135 69.8548 69.0396 70.1184L68.2621 70.1953ZM84.5082 67.7284Q84.642 68.1522 84.6382 68.6633L84.6382 69.1609L83.857 69.1609L83.8571 68.6575Q83.8599 68.2697 83.7632 67.9634L84.5082 67.7284ZM84.6382 70.1618L84.6382 71.1627L83.857 71.1627L83.857 70.1618L84.6382 70.1618ZM84.6382 72.1636L84.6382 73.1646L83.857 73.1646L83.857 72.1636L84.6382 72.1636ZM84.6382 74.1655L84.6382 74.666L84.2476 74.666L84.2476 74.2754L84.9572 74.2754L84.9572 75.0565L83.857 75.0565L83.857 74.1655L84.6382 74.1655ZM86.3761 74.2754L87.0856 74.2754L87.0856 74.666L86.695 74.666L86.695 74.2589L87.4763 74.2589L87.4763 75.0565L86.3761 75.0565L86.3761 74.2754ZM86.695 73.4446L86.695 72.6304L87.4763 72.6304L87.4763 73.4446L86.695 73.4446ZM86.695 71.8163L86.695 71.002L87.4763 71.002L87.4763 71.8163L86.695 71.8163ZM86.695 70.1878L86.695 69.3736L87.4763 69.3736L87.4763 70.1878L86.695 70.1878ZM86.695 68.5594L86.695 68.1523Q86.695 67.8864 86.6702 67.6352L87.4476 67.5582Q87.4763 67.8478 87.4763 68.1523L87.4763 68.5594L86.695 68.5594ZM86.4805 66.7222Q86.3438 66.3125 86.1243 65.9765L86.7783 65.5492Q87.053 65.9697 87.2216 66.475L86.4805 66.7222ZM85.6039 65.3838Q85.2913 65.1183 84.9031 64.9536L85.2084 64.2345Q85.7061 64.4458 86.1095 64.7882L85.6039 65.3838ZM84.044 64.7274Q83.8073 64.6979 83.5565 64.6979Q83.3107 64.6979 83.0792 64.7262L82.9842 63.9508Q83.263 63.9167 83.5565 63.9167Q83.8559 63.9167 84.1409 63.9523L84.044 64.7274ZM82.2485 64.94Q81.8641 65.0997 81.5614 65.358L81.0543 64.7637Q81.4507 64.4255 81.9488 64.2186L82.2485 64.94ZM81.0312 65.9944Q80.924 66.1786 80.845 66.3838L80.7487 66.6341L80.4507 66.6341L80.4507 65.8529L80.4805 65.8529L80.4805 66.2435L80.1159 66.1033Q80.2173 65.8395 80.3563 65.6011L81.0312 65.9944ZM80.3912 66.6341L79.9708 66.6341L79.9708 65.7927L80.7521 65.7927L80.7521 66.2435L80.3615 66.2435L80.3615 65.8529L80.3912 65.8529L80.3912 66.6341ZM79.9708 64.8909L79.9708 64.44L80.3615 64.44L80.3615 64.8306L79.6851 64.8306L79.6851 64.0494L80.7521 64.0494L80.7521 64.8909L79.9708 64.8909ZM78.3325 64.8306L77.6562 64.8306L77.6562 64.44L78.0468 64.44L78.0468 64.8661L77.2656 64.8661L77.2656 64.0494L78.3325 64.0494L78.3325 64.8306ZM78.0468 65.7183L78.0468 66.5704L77.2656 66.5704L77.2656 65.7183L78.0468 65.7183ZM78.0468 67.4226L78.0468 68.2747L77.2656 68.2747L77.2656 67.4226L78.0468 67.4226ZM78.0468 69.1269L78.0468 69.9791L77.2656 69.9791L77.2656 69.1269L78.0468 69.1269ZM78.0468 70.8312L78.0468 71.6834L77.2656 71.6834L77.2656 70.8312L78.0468 70.8312ZM78.0468 72.5356L78.0468 73.3877L77.2656 73.3877L77.2656 72.5356L78.0468 72.5356ZM78.0468 74.2399L78.0468 74.666L77.6562 74.666L77.6562 74.2754L78.3657 74.2754L78.3657 75.0565L77.2656 75.0565L77.2656 74.2399L78.0468 74.2399ZM79.7847 74.2754L80.4941 74.2754L80.4941 74.666L80.1035 74.666L80.1035 74.1731L80.8848 74.1731L80.8848 75.0565L79.7847 75.0565L79.7847 74.2754ZM80.1035 73.1875L80.1035 72.2018L80.8848 72.2018L80.8848 73.1875L80.1035 73.1875ZM80.1035 71.2161L80.1035 70.2304L80.8848 70.2304L80.8848 71.2161L80.1035 71.2161ZM80.1035 69.2448L80.1035 68.752Q80.1045 68.4856 80.1431 68.2407L80.9147 68.3623Q80.8855 68.5481 80.8848 68.752L80.8848 69.2448L80.1035 69.2448ZM80.4447 67.3577Q80.6782 66.9507 81.0503 66.6863L81.5027 67.3232Q81.2704 67.4883 81.1224 67.7464L80.4447 67.3577ZM81.9294 66.3195Q82.1708 66.274 82.4304 66.274Q82.9481 66.274 83.3704 66.4498L83.0701 67.1711Q82.792 67.0552 82.4304 67.0552Q82.2439 67.0552 82.0742 67.0872L81.9294 66.3195ZM45.7548 7.66229Q45.2959 7.89777 44.8058 8.05957L44.5609 7.31775Q44.9933 7.17497 45.3982 6.96722L45.7548 7.66229ZM43.8098 8.30507Q43.3007 8.38953 42.7849 8.39432L42.7776 7.61314Q43.2328 7.60892 43.6819 7.53439L43.8098 8.30507ZM41.7495 8.32275Q41.4899 8.28423 41.2338 8.22527L40.8025 8.12599L40.9778 7.3647L41.409 7.46397Q41.635 7.51601 41.8642 7.55L41.7495 8.32275ZM39.9401 7.92744L39.0776 7.72891L39.2529 6.96761L40.1153 7.16615L39.9401 7.92744ZM38.2152 7.53036L37.3527 7.33182L37.528 6.57051L38.3904 6.76906L38.2152 7.53036ZM36.4903 7.13327L35.6278 6.93472L35.8031 6.17343L36.6655 6.37198L36.4903 7.13327ZM34.7654 6.73618L34.3342 6.6369Q34.1281 6.58948 33.9201 6.55698L34.0406 5.78513Q34.2763 5.82193 34.5094 5.87561L34.9406 5.97488L34.7654 6.73618ZM33.0955 6.48726Q32.688 6.48178 32.2837 6.53307L32.1854 5.75807Q32.6439 5.69991 33.106 5.70613L33.0955 6.48726ZM31.4732 6.69482Q31.0758 6.80383 30.697 6.96754L30.3871 6.25044Q30.8162 6.06497 31.2666 5.94144L31.4732 6.69482ZM29.9674 7.34532Q29.6149 7.56038 29.2962 7.82231L28.8001 7.21883Q29.1612 6.92201 29.5607 6.67838L29.9674 7.34532ZM28.6952 8.39221Q28.4118 8.70195 28.1758 9.04903L27.5298 8.60973Q27.7974 8.21613 28.1188 7.86487L28.6952 8.39221ZM27.7491 9.78708Q27.6544 9.98241 27.574 10.1849L27.4108 10.5962L26.6847 10.308L26.8479 9.89667Q26.9389 9.66747 27.0461 9.4463L27.7491 9.78708ZM27.0842 11.4188L26.7577 12.2413L26.0316 11.9531L26.3581 11.1305L27.0842 11.4188ZM26.4312 13.0639L26.1046 13.8865L25.3785 13.5982L25.7051 12.7757L26.4312 13.0639ZM25.7781 14.709L25.4516 15.5316L24.7255 15.2434L25.052 14.4208L25.7781 14.709ZM25.1251 16.3542L24.9618 16.7655Q24.8649 17.0097 24.749 17.2453L24.0479 16.9007Q24.1501 16.6928 24.2357 16.4772L24.399 16.0659L25.1251 16.3542ZM24.2198 18.1381Q23.9228 18.5598 23.5641 18.9308L23.0025 18.3878Q23.319 18.0605 23.581 17.6883L24.2198 18.1381ZM22.7962 19.6111Q22.3847 19.9225 21.9302 20.1664L21.5608 19.4781Q21.9618 19.2629 22.3249 18.9881L22.7962 19.6111ZM20.9802 20.5842Q20.7323 20.6708 20.4782 20.7376L20.0502 20.8501L19.8516 20.0946L20.2796 19.9821Q20.5039 19.9231 20.7226 19.8467L20.9802 20.5842ZM19.1943 21.0751L18.3383 21.3001L18.1397 20.5446L18.9957 20.3195L19.1943 21.0751ZM17.4824 21.5251L16.6265 21.7501L16.4279 20.9945L17.2838 20.7695L17.4824 21.5251ZM15.7706 21.9751L14.9146 22.2001L14.716 21.4445L15.572 21.2195L15.7706 21.9751ZM14.0587 22.4251L13.6307 22.5376Q13.42 22.593 13.2147 22.6634L12.9612 21.9245Q13.1936 21.8447 13.4321 21.782L13.8601 21.6695L14.0587 22.4251ZM12.4306 22.998Q12.0576 23.1905 11.716 23.4345L11.2619 22.7988Q11.6494 22.522 12.0724 22.3038L12.4306 22.998ZM11.0778 23.9624Q10.7794 24.2472 10.5234 24.5713L9.91031 24.0871Q10.2003 23.7199 10.5385 23.3972L11.0778 23.9624ZM10.0604 25.25Q9.85223 25.6063 9.69611 25.9877L8.97311 25.6917Q9.15002 25.2596 9.38589 24.8559L10.0604 25.25ZM9.43784 26.7728Q9.3382 27.1679 9.29453 27.5731L8.51782 27.4893Q8.56732 27.0299 8.68033 26.5817L9.43784 26.7728ZM9.26434 28.4001Q9.27151 28.6106 9.29376 28.8208L9.34033 29.2608L8.56348 29.343L8.51691 28.903Q8.49173 28.6651 8.48358 28.4267L9.26434 28.4001ZM9.43347 30.1409L9.52661 31.021L8.74976 31.1032L8.65662 30.2231L9.43347 30.1409ZM9.61975 31.9011L9.71289 32.7812L8.93604 32.8634L8.8429 31.9833L9.61975 31.9011ZM9.80603 33.6613L9.89917 34.5414L9.12231 34.6236L9.02917 33.7435L9.80603 33.6613ZM9.99231 35.4215L10.0389 35.8615Q10.0666 36.1228 10.0735 36.3853L9.29254 36.406Q9.28644 36.1743 9.26202 35.9437L9.21545 35.5037L9.99231 35.4215ZM10.0197 37.4217Q9.95282 37.9332 9.80762 38.4284L9.05795 38.2086Q9.18607 37.7716 9.24512 37.3204L10.0197 37.4217ZM9.44382 39.3876Q9.22415 39.8545 8.93506 40.2818L8.28806 39.844Q8.54309 39.467 8.73694 39.055L9.44382 39.3876ZM8.28802 41.0932Q8.1088 41.285 7.91479 41.4623L7.58813 41.7608L7.06116 41.1841L7.38782 40.8856Q7.55905 40.7292 7.71719 40.5599L8.28802 41.0932ZM6.93481 42.3578L6.28146 42.9548L5.75449 42.3781L6.40784 41.7811L6.93481 42.3578ZM5.62814 43.5518L4.97482 44.1488L4.44785 43.5721L5.10117 42.9751L5.62814 43.5518ZM4.3215 44.7458L3.66815 45.3428L3.14117 44.7661L3.79453 44.1691L4.3215 44.7458ZM3.01483 45.9398L2.68817 46.2383Q2.52731 46.3853 2.37827 46.543L1.81036 46.0066Q1.97916 45.8279 2.16119 45.6616L2.48785 45.3631L3.01483 45.9398ZM1.83948 47.2037Q1.59866 47.5475 1.40955 47.9223L0.712097 47.5704Q0.926575 47.1453 1.19965 46.7555L1.83948 47.2037ZM1.08981 48.6863Q0.957886 49.0772 0.881836 49.4831L0.113983 49.3393Q0.200134 48.8794 0.349609 48.4365L1.08981 48.6863ZM0.787323 50.2992Q0.768555 50.7114 0.807587 51.1217L0.0298767 51.1957Q-0.0143433 50.7308 0.00689697 50.2637L0.787323 50.2992ZM0.943726 51.9369Q1.03915 52.3331 1.18875 52.7121L0.462097 52.9989Q0.29245 52.5691 0.184235 52.1198L0.943726 51.9369ZM1.54636 53.4584Q1.65054 53.6415 1.76791 53.8173L2.01367 54.1853L1.36398 54.6191L1.11826 54.2511Q0.985382 54.0522 0.867432 53.8449L1.54636 53.4584ZM2.50513 54.9213L2.99661 55.6573L2.34692 56.0911L1.85544 55.3551L2.50513 54.9213ZM3.48807 56.3932L3.97955 57.1292L3.32986 57.5631L2.83838 56.8271L3.48807 56.3932ZM4.47101 57.8652L4.96249 58.6012L4.31281 59.0351L3.82132 58.2991L4.47101 57.8652ZM5.45395 59.3372L5.69968 59.7052Q5.84564 59.9238 5.97375 60.153L5.29187 60.5341Q5.1788 60.332 5.05002 60.1391L4.80426 59.7711L5.45395 59.3372ZM6.40781 61.0957Q6.58624 61.5797 6.68781 62.0856L5.92188 62.2393Q5.83224 61.7929 5.6748 61.3659L6.40781 61.0957ZM6.81146 63.104Q6.83392 63.6195 6.77652 64.1322L6.00015 64.0452Q6.05081 63.5929 6.03098 63.138L6.81146 63.104ZM6.58066 65.1513Q6.51111 65.4046 6.42172 65.6516L6.27121 66.0677L5.53656 65.802L5.6871 65.3859Q5.76599 65.1678 5.82736 64.9444L6.58066 65.1513ZM5.97015 66.9L5.66907 67.7322L4.93445 67.4665L5.2355 66.6342L5.97015 66.9ZM5.36804 68.5645L5.06699 69.3967L4.33234 69.1309L4.63339 68.2987L5.36804 68.5645ZM4.76593 70.2289L4.46487 71.0611L3.73022 70.7954L4.03131 69.9632L4.76593 70.2289ZM4.16382 71.8934L4.01328 72.3095Q3.94138 72.5082 3.884 72.7109L3.13232 72.4981Q3.19727 72.2687 3.27866 72.0437L3.42917 71.6276L4.16382 71.8934ZM3.71542 73.5211Q3.66086 73.9249 3.66306 74.3325L2.88184 74.3366Q2.87936 73.8745 2.94125 73.4165L3.71542 73.5211ZM3.72592 75.1565Q3.78625 75.5642 3.90311 75.96L3.15387 76.1812Q3.02148 75.7328 2.95312 75.2708L3.72592 75.1565ZM4.19019 76.7297Q4.36118 77.1057 4.58279 77.4536L3.92389 77.8733Q3.67279 77.4791 3.4791 77.0532L4.19019 76.7297ZM5.07608 78.1189Q5.34943 78.4376 5.6655 78.7137L5.15155 79.302Q4.79312 78.9889 4.48312 78.6275L5.07608 78.1189ZM6.34674 79.2262Q6.52927 79.3438 6.72058 79.448L7.10919 79.6596L6.73553 80.3457L6.34692 80.1341Q6.13049 80.0162 5.92374 79.883L6.34674 79.2262ZM7.88638 80.0829L8.6636 80.5062L8.28995 81.1923L7.51276 80.769L7.88638 80.0829ZM9.44083 80.9295L10.218 81.3528L9.84436 82.0388L9.06717 81.6156L9.44083 80.9295ZM10.9952 81.7761L11.7724 82.1994L11.3988 82.8855L10.6216 82.4622L10.9952 81.7761ZM12.5497 82.6227L12.9383 82.8343Q13.1691 82.9601 13.389 83.1034L12.9624 83.7578Q12.7683 83.6313 12.5646 83.5204L12.176 83.3087L12.5497 82.6227ZM14.2114 83.7364Q14.5943 84.082 14.9194 84.4828L14.3126 84.9749Q14.0258 84.6212 13.688 84.3163L14.2114 83.7364ZM15.5021 85.3271Q15.7616 85.7732 15.949 86.2538L15.2212 86.5376Q15.0558 86.1135 14.8269 85.7199L15.5021 85.3271ZM16.2493 87.2472Q16.3053 87.5037 16.341 87.7641L16.4011 88.2025L15.6271 88.3086L15.567 87.8701Q15.5356 87.6404 15.4861 87.414L16.2493 87.2472ZM16.5213 89.0793L16.6415 89.9561L15.8675 90.0622L15.7473 89.1854L16.5213 89.0793ZM16.7617 90.8329L16.8818 91.7097L16.1079 91.8158L15.9877 90.939L16.7617 90.8329ZM17.002 92.5865L17.1222 93.4633L16.3482 93.5694L16.2281 92.6926L17.002 92.5865ZM17.2424 94.3401L17.3025 94.7785Q17.3318 94.9926 17.3766 95.2033L16.6124 95.3655Q16.5617 95.127 16.5285 94.8846L16.4684 94.4462L17.2424 94.3401ZM17.6114 96.016Q17.7557 96.4066 17.9542 96.7729L17.2673 97.1451Q17.0422 96.7297 16.8786 96.2867L17.6114 96.016ZM18.3955 97.4662Q18.639 97.7951 18.9261 98.0875L18.3688 98.6349Q18.0435 98.3037 17.7676 97.931L18.3955 97.4662ZM19.5366 98.6283Q19.8614 98.8781 20.2173 99.0801L19.8316 99.7595Q19.4283 99.5305 19.0603 99.2475L19.5366 98.6283ZM20.9587 99.4347Q21.3463 99.5876 21.7515 99.6837L21.5711 100.444Q21.1116 100.335 20.6721 100.161L20.9587 99.4347ZM22.5865 99.8189Q22.8011 99.8379 23.0171 99.8412L23.4596 99.8481L23.4475 100.629L23.0051 100.622Q22.7604 100.619 22.5176 100.597L22.5865 99.8189ZM24.3445 99.8617L25.2294 99.8753L25.2173 100.656L24.3324 100.643L24.3445 99.8617ZM26.1143 99.8889L26.9992 99.9026L26.9871 100.684L26.1022 100.67L26.1143 99.8889ZM27.8841 99.9162L28.769 99.9298L28.757 100.711L27.872 100.697L27.8841 99.9162ZM29.6539 99.9434L30.0963 99.9502Q30.3591 99.9543 30.6205 99.979L30.5468 100.757Q30.3161 100.735 30.0843 100.731L29.6418 100.725L29.6539 99.9434ZM31.6429 100.157Q32.1425 100.285 32.6166 100.489L32.3081 101.207Q31.8897 101.027 31.4489 100.914L31.6429 100.157ZM33.525 100.966Q33.9621 101.24 34.3513 101.579L33.8387 102.168Q33.4953 101.87 33.1096 101.628L33.525 100.966ZM35.0789 102.319Q35.2477 102.52 35.4003 102.734L35.6572 103.094L35.0212 103.548L34.7643 103.188Q34.6296 102.999 34.4806 102.821L35.0789 102.319ZM36.1711 103.815L36.685 104.535L36.049 104.989L35.5351 104.268L36.1711 103.815ZM37.1989 105.256L37.7128 105.976L37.0768 106.43L36.5629 105.709L37.1989 105.256ZM38.2267 106.697L38.7406 107.417L38.1046 107.871L37.5907 107.15L38.2267 106.697ZM39.2545 108.138L39.5114 108.498Q39.6379 108.676 39.7766 108.842L39.1756 109.342Q39.0186 109.152 38.8754 108.952L38.6184 108.591L39.2545 108.138ZM40.3675 109.457Q40.6797 109.738 41.029 109.97L40.5956 110.62Q40.1995 110.356 39.8454 110.038L40.3675 109.457ZM41.7489 110.38Q42.1211 110.558 42.5148 110.682L42.2795 111.427Q41.8333 111.286 41.4117 111.085L41.7489 110.38ZM43.3136 110.875Q43.7206 110.943 44.1326 110.954L44.1122 111.735Q43.6454 111.722 43.1843 111.645L43.3136 110.875ZM44.9582 110.917Q45.363 110.87 45.7573 110.767L45.9545 111.523Q45.5073 111.639 45.0482 111.693L44.9582 110.917ZM46.5413 110.502Q46.7355 110.421 46.9242 110.325L47.3192 110.126L47.6715 110.823L47.2766 111.022Q47.0631 111.13 46.8431 111.222L46.5413 110.502ZM48.109 109.726L48.8989 109.327L49.2513 110.025L48.4614 110.424L48.109 109.726ZM49.6888 108.928L50.4786 108.529L50.831 109.226L50.0411 109.625L49.6888 108.928ZM51.2685 108.13L52.0584 107.731L52.4107 108.428L51.6209 108.827L51.2685 108.13ZM52.8483 107.331L53.2432 107.132Q53.4778 107.013 53.7207 106.914L54.0169 107.637Q53.8026 107.724 53.5956 107.829L53.2006 108.029L52.8483 107.331ZM54.7088 106.596Q55.2108 106.478 55.7253 106.438L55.7856 107.217Q55.3316 107.252 54.8887 107.357L54.7088 106.596ZM56.7512 106.438Q57.2656 106.478 57.7676 106.596L57.5877 107.357Q57.1448 107.252 56.6909 107.217L56.7512 106.438ZM58.7557 106.914Q58.9987 107.013 59.2333 107.132L59.6282 107.331L59.2758 108.029L58.8809 107.829Q58.6739 107.724 58.4595 107.637L58.7557 106.914ZM60.418 107.731L61.2079 108.13L60.8556 108.827L60.0657 108.428L60.418 107.731ZM61.9978 108.529L62.7877 108.928L62.4353 109.625L61.6454 109.226L61.9978 108.529ZM63.5775 109.327L64.3674 109.726L64.0151 110.424L63.2252 110.025L63.5775 109.327ZM65.1573 110.126L65.5522 110.325Q65.7408 110.421 65.9351 110.502L65.6334 111.222Q65.4133 111.13 65.1998 111.022L64.8049 110.823L65.1573 110.126ZM66.7191 110.767Q67.1134 110.87 67.5182 110.917L67.4282 111.693Q66.9691 111.639 66.522 111.523L66.7191 110.767ZM68.3439 110.954Q68.7559 110.943 69.1628 110.875L69.2921 111.645Q68.831 111.722 68.3642 111.735L68.3439 110.954ZM69.9616 110.682Q70.3554 110.558 70.7275 110.38L71.0647 111.085Q70.6431 111.286 70.197 111.427L69.9616 110.682ZM71.4474 109.97Q71.7968 109.737 72.109 109.457L72.631 110.038Q72.277 110.356 71.8809 110.62L71.4474 109.97ZM72.6999 108.842Q72.8385 108.676 72.9651 108.498L73.222 108.138L73.858 108.591L73.6011 108.952Q73.4579 109.152 73.3009 109.342L72.6999 108.842ZM73.7359 107.417L74.2498 106.697L74.8858 107.15L74.3719 107.871L73.7359 107.417ZM74.7637 105.976L75.2776 105.256L75.9136 105.709L75.3997 106.43L74.7637 105.976ZM75.7914 104.535L76.3053 103.815L76.9413 104.268L76.4275 104.989L75.7914 104.535ZM76.8192 103.094L77.0762 102.734Q77.2288 102.52 77.3976 102.319L77.9958 102.821Q77.8468 102.999 77.7122 103.188L77.4552 103.548L76.8192 103.094ZM78.1251 101.579Q78.5144 101.24 78.9514 100.966L79.3668 101.628Q78.9811 101.87 78.6377 102.168L78.1251 101.579ZM79.8598 100.489Q80.3339 100.285 80.8336 100.157L81.0275 100.914Q80.5867 101.027 80.1683 101.207L79.8598 100.489ZM81.856 99.979Q82.1173 99.9543 82.3801 99.9502L82.8226 99.9434L82.8346 100.725L82.3921 100.731Q82.1603 100.735 81.9296 100.757L81.856 99.979ZM83.7075 99.9298L84.5923 99.9162L84.6044 100.697L83.7195 100.711L83.7075 99.9298ZM85.4773 99.9026L86.3622 99.8889L86.3741 100.67L85.4893 100.684L85.4773 99.9026ZM87.2471 99.8753L88.132 99.8617L88.144 100.643L87.2591 100.656L87.2471 99.8753ZM89.0168 99.8481L89.4594 99.8412Q89.6754 99.8379 89.89 99.8189L89.9589 100.597Q89.716 100.619 89.4713 100.622L89.0289 100.629L89.0168 99.8481ZM90.725 99.6837Q91.1302 99.5876 91.5178 99.4347L91.8044 100.161Q91.3649 100.335 90.9053 100.444L90.725 99.6837ZM92.2592 99.0802Q92.6151 98.8781 92.9398 98.6283L93.4161 99.2475Q93.0481 99.5305 92.6448 99.7595L92.2592 99.0802ZM93.5503 98.0875Q93.8375 97.7951 94.0809 97.4662L94.7088 97.931Q94.4329 98.3037 94.1076 98.6349L93.5503 98.0875ZM94.5223 96.7729Q94.7207 96.4066 94.865 96.016L95.5978 96.2867Q95.4342 96.7297 95.2092 97.1451L94.5223 96.7729ZM95.0999 95.2034Q95.1446 94.9926 95.174 94.7785L95.234 94.3401L96.008 94.4462L95.9479 94.8846Q95.9147 95.1269 95.8641 95.3655L95.0999 95.2034ZM95.3542 93.4633L95.4744 92.5865L96.2484 92.6926L96.1282 93.5694L95.3542 93.4633ZM95.5946 91.7097L95.7148 90.8329L96.4888 90.939L96.3685 91.8158L95.5946 91.7097ZM95.835 89.9561L95.9551 89.0793L96.7291 89.1854L96.6089 90.0622L95.835 89.9561ZM96.0753 88.2025L96.1354 87.7641Q96.1711 87.5038 96.2272 87.2472L96.9904 87.414Q96.9409 87.6404 96.9094 87.8701L96.8493 88.3086L96.0753 88.2025ZM96.5274 86.2538Q96.7148 85.7732 96.9743 85.3271L97.6495 85.7199Q97.4206 86.1136 97.2552 86.5376L96.5274 86.2538ZM97.557 84.4828Q97.8821 84.082 98.265 83.7364L98.7885 84.3163Q98.4506 84.6213 98.1638 84.9749L97.557 84.4828ZM99.0874 83.1034Q99.3074 82.96 99.5381 82.8343L99.9268 82.6227L100.3 83.3087L99.9118 83.5204Q99.7081 83.6313 99.514 83.7578L99.0874 83.1034ZM100.704 82.1994L101.481 81.7761L101.855 82.4622L101.078 82.8855L100.704 82.1994ZM102.258 81.3528L103.036 80.9295L103.409 81.6156L102.632 82.0388L102.258 81.3528ZM103.813 80.5062L104.59 80.0829L104.964 80.769L104.186 81.1923L103.813 80.5062ZM105.367 79.6596L105.756 79.448Q105.947 79.3438 106.13 79.2262L106.553 79.883Q106.346 80.0161 106.13 80.134L105.741 80.3457L105.367 79.6596ZM106.811 78.7137Q107.127 78.4376 107.4 78.1189L107.993 78.6275Q107.683 78.9889 107.325 79.302L106.811 78.7137ZM107.894 77.4536Q108.115 77.1057 108.286 76.7297L108.997 77.0531Q108.804 77.4791 108.553 77.8733L107.894 77.4536ZM108.573 75.9599Q108.69 75.5641 108.75 75.1565L109.523 75.2708Q109.455 75.7327 109.323 76.1812L108.573 75.9599ZM108.813 74.3324Q108.816 73.9249 108.761 73.5211L109.535 73.4165Q109.597 73.8745 109.595 74.3366L108.813 74.3324ZM108.592 72.7109Q108.535 72.5082 108.463 72.3094L108.313 71.8933L109.047 71.6276L109.198 72.0437Q109.279 72.2686 109.344 72.4981L108.592 72.7109ZM108.012 71.0611L107.711 70.2289L108.445 69.9631L108.746 70.7953L108.012 71.0611ZM107.409 69.3967L107.108 68.5644L107.843 68.2987L108.144 69.1309L107.409 69.3967ZM106.807 67.7322L106.506 66.9L107.241 66.6342L107.542 67.4665L106.807 67.7322ZM106.205 66.0677L106.055 65.6516Q105.965 65.4045 105.896 65.1513L106.649 64.9444Q106.71 65.1679 106.789 65.3859L106.94 65.802L106.205 66.0677ZM105.7 64.1322Q105.643 63.6195 105.665 63.104L106.445 63.138Q106.426 63.593 106.476 64.0452L105.7 64.1322ZM105.789 62.0856Q105.89 61.5796 106.069 61.0957L106.802 61.3659Q106.644 61.7928 106.555 62.2393L105.789 62.0856ZM106.503 60.153Q106.631 59.9238 106.777 59.7052L107.022 59.3372L107.672 59.7711L107.426 60.1391Q107.298 60.3319 107.185 60.5342L106.503 60.153ZM107.514 58.6012L108.005 57.8652L108.655 58.2991L108.164 59.0351L107.514 58.6012ZM108.497 57.1292L108.988 56.3932L109.638 56.8271L109.147 57.5631L108.497 57.1292ZM109.48 55.6573L109.971 54.9212L110.621 55.3551L110.129 56.0911L109.48 55.6573ZM110.463 54.1852L110.708 53.8172Q110.826 53.6415 110.93 53.4584L111.609 53.8449Q111.491 54.0522 111.358 54.2511L111.112 54.6191L110.463 54.1852ZM111.288 52.7121Q111.437 52.333 111.533 51.9369L112.292 52.1198Q112.184 52.5691 112.014 52.9989L111.288 52.7121ZM111.669 51.1217Q111.708 50.7115 111.689 50.2992L112.47 50.2637Q112.491 50.7307 112.447 51.1956L111.669 51.1217ZM111.595 49.4831Q111.519 49.0772 111.387 48.6863L112.127 48.4365Q112.276 48.8793 112.362 49.3393L111.595 49.4831ZM111.067 47.9223Q110.878 47.5475 110.637 47.2037L111.277 46.7555Q111.55 47.1453 111.764 47.5704L111.067 47.9223ZM110.098 46.543Q109.949 46.3852 109.788 46.2383L109.462 45.9398L109.989 45.3631L110.315 45.6616Q110.497 45.8279 110.666 46.0066L110.098 46.543ZM108.808 45.3428L108.155 44.7458L108.682 44.1691L109.335 44.7661L108.808 45.3428ZM107.502 44.1488L106.848 43.5518L107.375 42.9751L108.029 43.5721L107.502 44.1488ZM106.195 42.9548L105.542 42.3578L106.069 41.7811L106.722 42.3781L106.195 42.9548ZM104.888 41.7608L104.562 41.4623Q104.368 41.2851 104.188 41.0932L104.759 40.5599Q104.917 40.7292 105.089 40.8856L105.415 41.1841L104.888 41.7608ZM103.541 40.2818Q103.252 39.8546 103.033 39.3876L103.74 39.055Q103.933 39.4671 104.188 39.844L103.541 40.2818ZM102.669 38.4284Q102.524 37.9332 102.457 37.4217L103.231 37.3204Q103.29 37.7717 103.418 38.2086L102.669 38.4284ZM102.403 36.3853Q102.41 36.1229 102.438 35.8615L102.484 35.4214L103.261 35.5037L103.214 35.9437Q103.19 36.1745 103.184 36.406L102.403 36.3853ZM102.577 34.5414L102.67 33.6613L103.447 33.7435L103.354 34.6236L102.577 34.5414ZM102.764 32.7812L102.857 31.9011L103.634 31.9833L103.54 32.8634L102.764 32.7812ZM102.95 31.021L103.043 30.1409L103.82 30.2231L103.727 31.1032L102.95 31.021ZM103.136 29.2608L103.183 28.8207Q103.205 28.6106 103.212 28.4L103.993 28.4267Q103.985 28.665 103.96 28.903L103.913 29.343L103.136 29.2608ZM103.182 27.573Q103.138 27.1679 103.039 26.7727L103.796 26.5817Q103.909 27.0298 103.959 27.4893L103.182 27.573ZM102.78 25.9877Q102.624 25.6062 102.416 25.25L103.091 24.8559Q103.326 25.2595 103.503 25.6917L102.78 25.9877ZM101.953 24.5713Q101.697 24.2472 101.399 23.9624L101.938 23.3972Q102.276 23.7199 102.566 24.087L101.953 24.5713ZM100.76 23.4345Q100.419 23.1905 100.046 22.998L100.404 22.3038Q100.827 22.522 101.214 22.7988L100.76 23.4345ZM99.2617 22.6634Q99.0564 22.593 98.8457 22.5376L98.4177 22.4251L98.6163 21.6695L99.0443 21.782Q99.2828 21.8447 99.5153 21.9245L99.2617 22.6634ZM97.5618 22.2001L96.7059 21.9751L96.9045 21.2195L97.7604 21.4445L97.5618 22.2001ZM95.85 21.7501L94.994 21.5251L95.1926 20.7695L96.0486 20.9945L95.85 21.7501ZM94.1381 21.3001L93.2821 21.0751L93.4807 20.3195L94.3367 20.5445L94.1381 21.3001ZM92.4262 20.8501L91.9982 20.7376Q91.7441 20.6708 91.4962 20.5842L91.7538 19.8467Q91.9725 19.9231 92.1968 19.982L92.6248 20.0945L92.4262 20.8501ZM90.5462 20.1664Q90.0917 19.9225 89.6802 19.6111L90.1516 18.9881Q90.5146 19.2629 90.9156 19.4781L90.5462 20.1664ZM88.9123 18.9308Q88.5536 18.5599 88.2567 18.1381L88.8954 17.6883Q89.1575 18.0605 89.4739 18.3878L88.9123 18.9308ZM87.7274 17.2453Q87.6116 17.0096 87.5146 16.7654L87.3514 16.3542L88.0775 16.0659L88.2407 16.4772Q88.3263 16.6928 88.4285 16.9007L87.7274 17.2453ZM87.0248 15.5316L86.6983 14.709L87.4244 14.4208L87.7509 15.2433L87.0248 15.5316ZM86.3718 13.8864L86.0452 13.0639L86.7714 12.7757L87.0979 13.5982L86.3718 13.8864ZM85.7188 12.2413L85.3922 11.4187L86.1183 11.1305L86.4448 11.9531L85.7188 12.2413ZM85.0657 10.5962L84.9024 10.1849Q84.822 9.98241 84.7273 9.78705L85.4303 9.44627Q85.5375 9.66751 85.6285 9.89665L85.7917 10.3079L85.0657 10.5962ZM84.3007 9.04901Q84.0646 8.70198 83.7812 8.3922L84.3576 7.86485Q84.679 8.21614 84.9467 8.60971L84.3007 9.04901ZM83.1802 7.8223Q82.8616 7.56036 82.509 7.34531L82.9157 6.67836Q83.3152 6.922 83.6763 7.2188L83.1802 7.8223ZM81.7794 6.96753Q81.4006 6.80382 81.0032 6.69482L81.2098 5.94144Q81.6602 6.06496 82.0894 6.25043L81.7794 6.96753ZM80.1927 6.53307Q79.7884 6.48177 79.381 6.48726L79.3705 5.70612Q79.8325 5.69991 80.291 5.75806L80.1927 6.53307ZM78.5563 6.55696Q78.3482 6.58948 78.1423 6.63689L77.7111 6.73616L77.5358 5.97487L77.967 5.8756Q78.2001 5.82191 78.4358 5.78511L78.5563 6.55696ZM76.8486 6.93471L75.9861 7.13326L75.8109 6.37196L76.6733 6.17342L76.8486 6.93471ZM75.1237 7.3318L74.2612 7.53035L74.0859 6.76906L74.9484 6.57051L75.1237 7.3318ZM73.3988 7.7289L72.5363 7.92744L72.3611 7.16615L73.2235 6.96761L73.3988 7.7289ZM71.6739 8.12599L71.2427 8.22527Q70.9866 8.28423 70.7269 8.32275L70.6122 7.55Q70.8414 7.51601 71.0674 7.46397L71.4987 7.3647L71.6739 8.12599ZM69.6915 8.39432Q69.1757 8.38953 68.6666 8.30507L68.7945 7.53439Q69.2437 7.60892 69.6988 7.61314L69.6915 8.39432ZM67.6705 8.05957Q67.1805 7.89775 66.7216 7.66231L67.0782 6.96722Q67.4832 7.17497 67.9155 7.31775L67.6705 8.05957ZM65.8381 7.11777Q65.626 6.96295 65.4266 6.79175L65.0909 6.50343L65.6 5.9108L65.9357 6.1991Q66.1116 6.35025 66.2987 6.48682L65.8381 7.11777ZM64.4196 5.92683L63.7482 5.35025L64.2572 4.7576L64.9285 5.33418L64.4196 5.92683ZM63.0768 4.77364L62.4054 4.19704L62.9144 3.60439L63.5858 4.18098L63.0768 4.77364ZM61.734 3.62042L61.0627 3.04384L61.5717 2.45119L62.243 3.02777L61.734 3.62042ZM60.3912 2.46722L60.0555 2.17892Q59.8939 2.0401 59.7234 1.91373L60.1885 1.28606Q60.3816 1.42915 60.5646 1.58627L60.9003 1.87457L60.3912 2.46722ZM59.0197 1.46613Q58.6584 1.27103 58.2732 1.12851L58.5443 0.395844Q58.9811 0.557465 59.3909 0.778717L59.0197 1.46613ZM57.473 0.895813Q57.0669 0.808533 56.6521 0.779282L56.707 1.52588e-05Q57.177 0.0331421 57.6372 0.13205L57.473 0.895813ZM55.8244 0.779282Q55.4095 0.808533 55.0034 0.895813L54.8393 0.132034Q55.2995 0.0331421 55.7695 0L55.8244 0.779282ZM54.2033 1.12849Q53.8181 1.27103 53.4568 1.46613L53.0856 0.778717Q53.4954 0.557465 53.9322 0.395844L54.2033 1.12849ZM52.7531 1.91373Q52.5825 2.04012 52.4209 2.17892L52.0852 2.46722L51.5762 1.87457L51.9119 1.58627Q52.0948 1.42918 52.288 1.28606L52.7531 1.91373ZM51.4138 3.04382L50.7424 3.62044L50.2334 3.02779L50.9048 2.45117L51.4138 3.04382ZM50.071 4.19704L49.3996 4.77364L48.8907 4.18098L49.562 3.60439L50.071 4.19704ZM48.7282 5.35023L48.0568 5.92685L47.5479 5.3342L48.2193 4.75758L48.7282 5.35023ZM47.3854 6.50345L47.0497 6.79175Q46.8504 6.96297 46.6383 7.11777L46.1777 6.48682Q46.3648 6.35019 46.5408 6.1991L46.8765 5.9108L47.3854 6.50345Z" fill="#232229" fill-opacity="1.000000" fill-rule="evenodd"/>
</svg>
