<svg width="176.000000" height="176.000000" viewBox="0 0 176 176" fill="none" xmlns="http://www.w3.org/2000/svg" xmlns:xlink="http://www.w3.org/1999/xlink">
	<desc>
			Created with Pixso.
	</desc>
	<defs/>
	<path id="Star 1" d="M81.3041 5.75061L74.0394 11.9896C71.5618 14.1174 68.2204 14.941 65.0378 14.2084L55.7057 12.06C50.7585 10.9211 45.7209 13.5651 43.8478 18.2836L40.3147 27.184C39.1097 30.2195 36.5338 32.5015 33.3752 33.3318L24.1138 35.7664C19.204 37.057 15.972 41.7393 16.5063 46.7877L17.5142 56.3106C17.8578 59.5583 16.6375 62.7761 14.2266 64.9791L7.15741 71.4388C3.40973 74.8633 2.724 80.5112 5.54321 84.7331L10.8611 92.6968C12.6747 95.4128 13.0895 98.8291 11.9786 101.9L8.72107 110.905C6.99414 115.679 9.0116 120.999 13.4699 123.427L21.8796 128.007C24.7477 129.569 26.7026 132.401 27.1461 135.637L28.4466 145.124C29.136 150.154 33.3945 153.927 38.4706 154.005L48.0455 154.152C51.311 154.202 54.3582 155.802 56.2546 158.461L61.8151 166.257C64.7629 170.39 70.2869 171.752 74.8178 169.462L83.3645 165.143C86.2793 163.67 89.7207 163.67 92.6355 165.143L101.182 169.462C105.713 171.752 111.237 170.39 114.185 166.257L119.745 158.461C121.642 155.802 124.689 154.202 127.954 154.152L137.529 154.005C142.605 153.927 146.864 150.154 147.553 145.124L148.854 135.637C149.297 132.401 151.252 129.569 154.12 128.007L162.53 123.427C166.988 120.999 169.006 115.679 167.279 110.905L164.021 101.9C162.91 98.8291 163.325 95.4128 165.139 92.6968L170.457 84.733C173.276 80.5112 172.59 74.8633 168.843 71.4388L161.773 64.9791C159.362 62.7761 158.142 59.5583 158.486 56.3105L159.494 46.7877C160.028 41.7392 156.796 37.057 151.886 35.7664L142.625 33.3318C139.466 32.5015 136.89 30.2194 135.685 27.184L132.152 18.2835C130.279 13.5651 125.241 10.9211 120.294 12.06L110.962 14.2083C107.78 14.941 104.438 14.1174 101.961 11.9896L94.6959 5.75061C90.8447 2.44305 85.1553 2.44305 81.3041 5.75061Z" fill="#FBC800" fill-opacity="1.000000" fill-rule="evenodd"/>
	<path id="Scroll Down" d="M48.5701 67.1389L50.1038 67.1389C50.0334 65.1614 48.2097 63.6848 45.6785 63.6848C43.1736 63.6848 41.2048 65.1438 41.2048 67.3411C41.2048 69.1077 42.4836 70.1536 44.5315 70.7424L46.1399 71.2039C47.5198 71.5862 48.7502 72.074 48.7502 73.3748C48.7502 74.8074 47.366 75.7566 45.551 75.7566C43.991 75.7566 42.6111 75.0623 42.4836 73.5813L40.8489 73.5813C41.0027 75.7302 42.7385 77.1848 45.551 77.1848C48.5701 77.1848 50.2839 75.5237 50.2839 73.4011C50.2839 70.949 47.9548 70.1536 46.6013 69.7976L45.2698 69.4373C44.2986 69.1824 42.7385 68.6726 42.7385 67.2664C42.7385 66.0139 43.8899 65.0911 45.6301 65.0911C47.2122 65.0911 48.4163 65.8469 48.5701 67.1389ZM56.6752 77.1628C58.8461 77.1628 60.2787 75.8313 60.5336 74.0911L59.0263 74.0911C58.745 75.1677 57.8485 75.8049 56.6752 75.8049C54.8866 75.8049 53.7352 74.324 53.7352 72.0476C53.7352 69.824 54.9086 68.365 56.6752 68.365C58.0023 68.365 58.7977 69.1824 59.0263 70.0789L60.5336 70.0789C60.2787 68.2375 58.7186 67.0115 56.6488 67.0115C53.9901 67.0115 52.2235 69.1077 52.2235 72.1003C52.2235 75.0403 53.911 77.1628 56.6752 77.1628ZM62.7332 76.9563L64.2406 76.9563L64.2406 70.7424C64.2406 69.4153 65.2909 68.4441 66.7235 68.4441C67.1234 68.4441 67.5409 68.5188 67.6419 68.5452L67.6419 67.0115C67.4706 66.9983 67.075 66.9851 66.8509 66.9851C65.6732 66.9851 64.6537 67.6487 64.2933 68.6199L64.1922 68.6199L64.1922 67.1389L62.7332 67.1389L62.7332 76.9563ZM73.1155 77.1628C75.7742 77.1628 77.5628 75.1414 77.5628 72.1003C77.5628 69.0286 75.7742 67.0115 73.1155 67.0115C70.4568 67.0115 68.6639 69.0286 68.6639 72.1003C68.6639 75.1414 70.4568 77.1628 73.1155 77.1628ZM73.1155 75.8049C71.094 75.8049 70.1756 74.0691 70.1756 72.1003C70.1756 70.1316 71.094 68.365 73.1155 68.365C75.1326 68.365 76.0555 70.1316 76.0555 72.1003C76.0555 74.0691 75.1326 75.8049 73.1155 75.8049ZM81.3712 63.865L79.8639 63.865L79.8639 76.9563L81.3712 76.9563L81.3712 63.865ZM85.6411 63.865L84.1338 63.865L84.1338 76.9563L85.6411 76.9563L85.6411 63.865ZM97.7113 76.9563C101.702 76.9563 103.952 74.4778 103.952 70.3865C103.952 66.3215 101.702 63.865 97.8915 63.865L93.6727 63.865L93.6727 76.9563L97.7113 76.9563ZM95.2548 75.55L95.2548 65.2712L97.786 65.2712C100.858 65.2712 102.418 67.2136 102.418 70.3865C102.418 73.5813 100.858 75.55 97.6102 75.55L95.2548 75.55ZM110.394 77.1628C113.053 77.1628 114.841 75.1414 114.841 72.1003C114.841 69.0286 113.053 67.0115 110.394 67.0115C107.735 67.0115 105.942 69.0286 105.942 72.1003C105.942 75.1414 107.735 77.1628 110.394 77.1628ZM110.394 75.8049C108.372 75.8049 107.454 74.0691 107.454 72.1003C107.454 70.1316 108.372 68.365 110.394 68.365C112.411 68.365 113.334 70.1316 113.334 72.1003C113.334 74.0691 112.411 75.8049 110.394 75.8049ZM119.034 76.9563L120.519 76.9563L122.668 69.4153L122.817 69.4153L124.966 76.9563L126.452 76.9563L129.44 67.1389L127.858 67.1389L125.735 74.6316L125.63 74.6316L123.56 67.1389L121.952 67.1389L119.855 74.6536L119.75 74.6536L117.627 67.1389L116.045 67.1389L119.034 76.9563ZM132.942 71.05C132.942 69.3362 134.006 68.365 135.452 68.365C136.849 68.365 137.702 69.2791 137.702 70.8215L137.702 76.9563L139.209 76.9563L139.209 70.7161C139.209 68.2112 137.873 67.0115 135.887 67.0115C134.401 67.0115 133.483 67.675 133.021 68.6726L132.894 68.6726L132.894 67.1389L131.435 67.1389L131.435 76.9563L132.942 76.9563L132.942 71.05Z" fill="#232229" fill-opacity="1.000000" fill-rule="evenodd"/>
	<path id="Vector 6" d="M88.066 54L88.066 24.4087" stroke="#202020" stroke-opacity="1.000000" stroke-width="1.557428"/>
	<path id="Vector 4" d="M76.3054 40.5322C79.293 40.5322 88.066 43.2511 88.066 54.0001" stroke="#202020" stroke-opacity="1.000000" stroke-width="1.557428"/>
	<path id="Vector 5" d="M99.8269 40.5322C96.8393 40.5322 88.0663 43.2511 88.0663 54.0001" stroke="#202020" stroke-opacity="1.000000" stroke-width="1.557428"/>
</svg>
