<svg width="36.268921" height="40.180359" viewBox="0 0 36.2689 40.1804" fill="none" xmlns="http://www.w3.org/2000/svg" xmlns:xlink="http://www.w3.org/1999/xlink">
	<desc>
			Created with Pixso.
	</desc>
	<defs/>
	<path id="Union" d="M22.9869 17.8635C30.6462 18.1338 36.2689 19.0283 36.2689 20.0901C36.2689 21.152 30.6462 22.0466 22.9869 22.3169C28.2303 28.508 31.6353 33.5452 30.9575 34.2961C30.2798 35.0469 25.7329 31.2748 20.1444 25.466C19.9004 33.9512 19.093 40.1804 18.1345 40.1804C17.176 40.1804 16.3685 33.9512 16.1245 25.4659C10.5361 31.2748 5.98926 35.0469 5.31152 34.2961C4.63367 33.5452 8.0387 28.508 13.282 22.3169C5.6228 22.0466 0 21.152 0 20.0901C0 19.0283 5.6228 18.1338 13.282 17.8635C8.0387 11.6724 4.63367 6.63513 5.3114 5.88428C5.98926 5.13342 10.5361 8.90558 16.1245 14.7144C16.3685 6.22913 17.176 0 18.1345 0C19.093 0 19.9004 6.22913 20.1444 14.7144C25.7329 8.90558 30.2798 5.13342 30.9575 5.88428C31.6353 6.63513 28.2303 11.6723 22.9869 17.8635L22.9869 17.8635Z" fill="#FE6A3A" fill-opacity="1.000000" fill-rule="nonzero"/>
</svg>
